<svg width="760" height="1524" viewBox="0 0 760 1524" fill="none" xmlns="http://www.w3.org/2000/svg">
    <path d="M258.045 590.505L281.025 577C287.353 581.835 300.709 591.905 303.506 593.506C306.304 595.106 309.668 603.175 311 607.01L287.02 661.528C285.022 664.196 280.826 669.731 280.026 670.531C279.027 671.532 277.528 674.033 273.532 672.532C269.535 671.032 259.544 667.03 258.544 665.03C257.745 663.429 259.016 660.028 259.752 658.527C258.147 657.347 256.936 656.417 256.546 656.027C255.047 654.526 255.547 652.525 256.046 651.525C256.278 651.062 257.689 648.88 259.286 646.523C259.205 643.022 259.344 635.82 260.543 635.019C261.742 634.219 266.159 635.686 268.218 636.52C268.39 628.208 274.846 620.587 278.49 617.514C270.987 612.921 255.457 602.419 255.047 602.008C254.648 601.608 256.879 594.172 258.045 590.505Z"
          fill="#FEF3E2"/>
    <path d="M282.025 619.514C281.395 619.244 280.136 618.521 278.49 617.514M278.49 617.514C270.987 612.921 255.457 602.419 255.047 602.008C254.648 601.608 256.879 594.172 258.045 590.505L281.025 577C287.353 581.835 300.709 591.905 303.506 593.506C306.304 595.106 309.668 603.175 311 607.01L287.02 661.528C285.022 664.196 280.826 669.731 280.026 670.531C279.027 671.532 277.528 674.033 273.532 672.532C269.535 671.032 259.544 667.03 258.544 665.03C257.745 663.429 259.016 660.028 259.752 658.527M278.49 617.514C274.846 620.587 268.39 628.208 268.218 636.52M270.534 648.524C270.701 649.691 270.534 649.624 268.536 640.021C268.501 639.854 268.469 639.688 268.441 639.521M270.534 648.524C269.202 649.691 266.438 652.225 266.038 653.026M270.534 648.524L271.533 654.026M268.441 639.521C267.473 639.188 265.239 638.821 264.04 640.021C263.235 640.826 261.136 643.793 259.286 646.523M268.441 639.521C268.266 638.515 268.197 637.513 268.218 636.52M278.49 664.029C278.835 663.696 278.927 663.529 276.529 665.53C274.131 667.53 271.866 667.03 271.034 666.53C268.112 664.505 263.083 660.977 259.752 658.527M259.752 658.527C258.147 657.347 256.936 656.417 256.546 656.027C255.047 654.526 255.547 652.525 256.046 651.525C256.278 651.062 257.689 648.88 259.286 646.523M259.286 646.523C259.205 643.022 259.344 635.82 260.543 635.019C261.742 634.219 266.159 635.686 268.218 636.52"
          stroke="#404040"/>
    <path d="M308.5 539.5C296 506.5 302 483 302.5 479.5L292 410L309.5 364L387.5 328L454 367L446.5 411L436.5 462.5C444.333 476.5 460.8 500.2 460 505C459.2 509.8 456 523.167 455 526.5L452 536.5L379.5 588.5C355.833 573 308.5 541.5 308.5 539.5Z"
          fill="#FDF4E2" stroke="#404040"/>
    <path d="M326.955 378C331.788 391.333 343.755 421.8 352.955 437C357.455 444.5 357.455 443.5 358.455 446.5C358.631 447.029 358.932 447.527 359.311 448C359.955 448 394.041 447.076 395.248 447.538C395.462 447.19 395.698 446.843 395.955 446.5C401.788 430.5 417.455 395.1 433.455 381.5L415.955 458L404.455 460C401.288 459.667 394.755 458.6 393.955 457C393.546 456.183 393.304 454.948 393.366 453.5H364.955C365.455 455.5 364.455 457.5 361.455 458C358.455 458.5 318.455 471 310.455 476C302.455 481 300.955 479 299.955 476C298.955 473 299.955 472 299.955 471.5C299.955 471 283.455 451 290.955 417C290.955 416.2 295.621 394 297.955 383L326.955 378Z"
          fill="#5B5E71"/>
    <path d="M364.955 453.5C365.455 455.5 364.455 457.5 361.455 458C358.455 458.5 318.455 471 310.455 476C302.455 481 300.955 479 299.955 476C298.955 473 299.955 472 299.955 471.5C299.955 471 283.455 451 290.955 417C290.955 416.2 295.621 394 297.955 383L326.955 378C331.788 391.333 343.755 421.8 352.955 437C357.455 444.5 357.455 443.5 358.455 446.5C358.631 447.029 358.932 447.527 359.311 448M364.955 453.5C364.543 451.853 361.079 450.206 359.311 448M364.955 453.5C373.955 453.5 392.237 453.5 393.366 453.5M359.311 448C359.955 448 394.041 447.076 395.248 447.538M395.248 447.538C395.462 447.19 395.698 446.843 395.955 446.5C401.788 430.5 417.455 395.1 433.455 381.5L415.955 458L404.455 460C401.288 459.667 394.755 458.6 393.955 457C393.546 456.183 393.304 454.948 393.366 453.5M395.248 447.538C393.984 449.592 393.443 451.709 393.366 453.5"
          stroke="#404040"/>
    <path d="M313.218 390.5C308.418 427.7 321.218 458.138 328.218 468.707C326.314 469.387 324.466 470.063 322.718 470.721C315.718 459.814 303.018 429.2 308.218 394C308.718 390.166 309.818 382.5 310.218 382.5C310.618 382.5 314.052 380.816 315.718 379.975L313.218 390.5Z"
          fill="#F7E7BC" stroke="#404040"/>
    <path d="M356 284V272H402V284H356Z" fill="#EBCEC5" stroke="#979797"/>
    <path fill-rule="evenodd" clip-rule="evenodd"
          d="M479.5 279.684C479.5 264.484 477.5 212.684 476.5 188.684C455.5 148.35 413.5 67.0834 413.5 64.6835C430.5 48.1835 440 44.1835 466 46.6835C492 49.1835 555 139.684 585 183.184C609 217.984 638.667 245.017 650.5 254.184C612 237.184 576.716 212.684 576.084 211.184C577.392 214.253 578.388 216.798 579 218.684C580.657 223.793 585.595 237.791 592.032 256.04C608.902 303.862 636.072 380.884 641.5 403.684C647.5 428.884 652 462.184 653.5 475.684C660.5 497.184 668.5 538.184 666 610.684C665.61 621.981 665.112 632.416 664.434 642.218C694.686 665.957 736 686.147 751.5 692.184C743.574 691.528 735.511 690.966 727.402 690.401C704.602 688.812 681.428 687.197 659.842 683.4C654.443 716.136 644.707 744.556 626.5 782.184C602.5 831.784 553.5 868.517 532 880.684C577.2 846.684 597.167 790.137 601.5 766.114C576.373 781.228 547.997 790.629 521.5 794.184C490.09 798.397 445.667 790.517 427.5 787.184C442.667 786.35 490.4 764.384 514 733.184C530.822 710.944 553.659 677.487 574.261 636.334C544.284 591.278 531.066 549.424 522.606 522.637C521.871 520.308 521.171 518.093 520.5 516C512 489.5 492 398.684 488 375.184C484 351.684 479.5 298.684 479.5 279.684ZM576 546C565.667 524.5 542.5 473.1 532.5 439.5C520 397.5 508.5 345.5 506.5 332C506.333 360.834 506.8 425.6 512 444C518.5 467 549.5 520.5 576 546Z"
          fill="#F7DE8B"/>
    <path d="M476.5 188.684L477 188.663L476.995 188.551L476.943 188.453L476.5 188.684ZM413.5 64.6835L413.152 64.3248L413 64.4721V64.6835H413.5ZM585 183.184L585.412 182.9L585.412 182.9L585 183.184ZM650.5 254.184L650.298 254.641L650.806 253.788L650.5 254.184ZM576.084 211.184L576.544 210.987L575.623 211.378L576.084 211.184ZM579 218.684L578.524 218.838L578.524 218.838L579 218.684ZM592.032 256.04L592.504 255.873L592.504 255.873L592.032 256.04ZM641.5 403.684L641.986 403.568L641.986 403.568L641.5 403.684ZM653.5 475.684L653.003 475.739L653.009 475.79L653.025 475.838L653.5 475.684ZM666 610.684L666.5 610.701L666.5 610.701L666 610.684ZM664.434 642.218L663.935 642.183L663.916 642.448L664.125 642.611L664.434 642.218ZM751.5 692.184L751.459 692.682L751.681 691.718L751.5 692.184ZM727.402 690.401L727.437 689.902L727.437 689.902L727.402 690.401ZM659.842 683.4L659.929 682.908L659.431 682.82L659.349 683.319L659.842 683.4ZM626.5 782.184L626.95 782.401L626.95 782.401L626.5 782.184ZM532 880.684L531.699 880.284L532.246 881.119L532 880.684ZM601.5 766.114L601.992 766.203L602.188 765.117L601.242 765.685L601.5 766.114ZM521.5 794.184L521.566 794.679L521.566 794.679L521.5 794.184ZM427.5 787.184L427.473 786.684L427.41 787.675L427.5 787.184ZM514 733.184L513.601 732.882L513.601 732.882L514 733.184ZM574.261 636.334L574.708 636.558L574.838 636.299L574.678 636.057L574.261 636.334ZM522.606 522.637L522.129 522.787L522.129 522.787L522.606 522.637ZM520.5 516L520.024 516.153L520.024 516.153L520.5 516ZM532.5 439.5L532.979 439.358L532.979 439.358L532.5 439.5ZM576 546L575.653 546.36L576.451 545.784L576 546ZM506.5 332L506.995 331.927L506 331.997L506.5 332ZM512 444L511.519 444.136L511.519 444.136L512 444ZM574.261 636.334L573.814 636.11L573.684 636.37L573.845 636.611L574.261 636.334ZM575.5 638.184L575.915 637.904L575.915 637.904L575.5 638.184ZM659.842 683.4L659.755 683.893L660.253 683.98L660.335 683.482L659.842 683.4ZM664.434 642.218L664.932 642.252L664.951 641.988L664.742 641.825L664.434 642.218ZM613.5 531.684L613.015 531.564L613.015 531.564L613.5 531.684ZM476 188.704C477.001 212.71 479 264.497 479 279.684H480C480 264.47 477.999 212.657 477 188.663L476 188.704ZM413 64.6835C413 64.7908 413.026 64.9011 413.048 64.9829C413.073 65.0761 413.108 65.1842 413.15 65.3034C413.235 65.5425 413.359 65.8517 413.517 66.2238C413.833 66.9695 414.298 67.9919 414.893 69.2591C416.085 71.7947 417.81 75.3274 419.943 79.6215C424.21 88.2107 430.117 99.8565 436.68 112.686C449.806 138.346 465.556 168.747 476.057 188.914L476.943 188.453C466.444 168.287 450.694 137.888 437.57 112.231C431.008 99.402 425.103 87.7604 420.838 79.1766C418.706 74.8843 416.985 71.3593 415.798 68.8337C415.204 67.5703 414.746 66.5613 414.437 65.8331C414.282 65.4684 414.167 65.1801 414.092 64.9685C414.055 64.8623 414.029 64.7816 414.013 64.7238C413.995 64.6545 414 64.6513 414 64.6835H413ZM466.048 46.1858C453.025 44.9336 444.062 45.3004 436.208 48.0873C428.353 50.8745 421.665 56.0624 413.152 64.3248L413.848 65.0423C422.335 56.8047 428.897 51.7426 436.542 49.0298C444.188 46.3167 452.975 45.9334 465.952 47.1812L466.048 46.1858ZM585.412 182.9C570.412 161.151 547.153 127.637 524.39 99.2458C513.01 85.0515 501.743 72.1249 491.688 62.5864C486.66 57.8174 481.925 53.8854 477.622 51.0642C473.327 48.249 469.418 46.5099 466.048 46.1858L465.952 47.1812C469.082 47.4822 472.829 49.1181 477.074 51.9005C481.309 54.677 485.996 58.5653 491 63.3119C501.007 72.8046 512.24 85.6906 523.61 99.8713C546.347 128.23 569.588 161.716 584.588 183.467L585.412 182.9ZM650.806 253.788C639.006 244.648 609.378 217.651 585.412 182.9L584.588 183.467C608.622 218.317 638.327 245.386 650.194 254.579L650.806 253.788ZM575.623 211.378C575.682 211.518 575.797 211.647 575.881 211.735C575.982 211.841 576.114 211.965 576.27 212.102C576.585 212.379 577.025 212.735 577.579 213.161C578.688 214.014 580.276 215.166 582.279 216.555C586.286 219.335 591.966 223.074 598.829 227.297C612.554 235.742 631.021 246.129 650.298 254.641L650.702 253.726C631.479 245.238 613.053 234.875 599.353 226.445C592.504 222.231 586.839 218.501 582.849 215.734C580.853 214.349 579.28 213.208 578.188 212.368C577.642 211.948 577.221 211.607 576.931 211.351C576.785 211.223 576.678 211.122 576.606 211.046C576.517 210.953 576.525 210.942 576.544 210.989L575.623 211.378ZM579.476 218.529C578.857 216.622 577.854 214.061 576.544 210.987L575.624 211.38C576.931 214.444 577.92 216.973 578.524 218.838L579.476 218.529ZM592.504 255.873C586.065 237.619 581.13 223.631 579.476 218.529L578.524 218.838C580.184 223.955 585.125 237.962 591.561 256.206L592.504 255.873ZM641.986 403.568C636.55 380.735 609.366 303.675 592.504 255.873L591.561 256.206C608.438 304.05 635.593 381.033 641.014 403.799L641.986 403.568ZM653.997 475.628C652.496 462.121 647.993 428.797 641.986 403.568L641.014 403.799C647.007 428.97 651.504 462.246 653.003 475.739L653.997 475.628ZM666.5 610.701C669.001 538.16 660.998 497.099 653.975 475.529L653.025 475.838C660.002 497.268 667.999 538.207 665.5 610.666L666.5 610.701ZM664.932 642.252C665.611 632.443 666.11 622.002 666.5 610.701L665.5 610.666C665.111 621.96 664.612 632.389 663.935 642.183L664.932 642.252ZM751.681 691.718C736.215 685.694 694.947 665.527 664.742 641.825L664.125 642.611C694.425 666.388 735.785 686.599 751.319 692.65L751.681 691.718ZM727.367 690.9C735.477 691.465 743.536 692.027 751.459 692.682L751.541 691.685C743.611 691.029 735.546 690.467 727.437 689.902L727.367 690.9ZM659.755 683.893C681.372 687.695 704.573 689.311 727.367 690.9L727.437 689.902C704.632 688.313 681.484 686.699 659.929 682.908L659.755 683.893ZM626.95 782.401C645.172 744.743 654.926 716.277 660.335 683.482L659.349 683.319C653.959 715.995 644.242 744.368 626.05 781.966L626.95 782.401ZM532.246 881.119C553.793 868.925 602.889 832.128 626.95 782.401L626.05 781.966C602.111 831.439 553.207 868.108 531.754 880.248L532.246 881.119ZM601.008 766.025C596.687 789.978 576.762 846.387 531.699 880.284L532.301 881.083C577.638 846.98 597.646 790.296 601.992 766.203L601.008 766.025ZM521.566 794.679C548.128 791.116 576.569 781.693 601.758 766.542L601.242 765.685C576.176 780.762 547.866 790.142 521.434 793.688L521.566 794.679ZM427.41 787.675C445.559 791.005 490.064 798.905 521.566 794.679L521.434 793.688C490.117 797.889 445.775 790.028 427.59 786.692L427.41 787.675ZM513.601 732.882C501.858 748.407 484.088 761.658 467.341 771.136C458.971 775.873 450.868 779.661 443.917 782.315C436.953 784.974 431.185 786.48 427.473 786.684L427.527 787.683C431.398 787.47 437.284 785.918 444.274 783.249C451.276 780.575 459.424 776.765 467.834 772.006C484.645 762.492 502.542 749.16 514.399 733.485L513.601 732.882ZM573.814 636.11C553.229 677.229 530.41 710.661 513.601 732.882L514.399 733.485C531.234 711.228 554.09 677.745 574.708 636.558L573.814 636.11ZM522.129 522.787C530.591 549.58 543.826 591.492 573.845 636.611L574.678 636.057C544.742 591.063 531.541 549.267 523.083 522.486L522.129 522.787ZM520.024 516.153C520.695 518.245 521.394 520.459 522.129 522.787L523.083 522.486C522.348 520.158 521.648 517.942 520.976 515.847L520.024 516.153ZM487.507 375.267C491.509 398.779 511.514 489.621 520.024 516.153L520.976 515.847C512.486 489.379 492.491 398.589 488.493 375.1L487.507 375.267ZM479 279.684C479 298.714 483.503 351.742 487.507 375.267L488.493 375.1C484.497 351.625 480 298.653 480 279.684H479ZM532.021 439.643C542.033 473.284 565.215 524.715 575.549 546.217L576.451 545.784C566.118 524.285 542.967 472.916 532.979 439.358L532.021 439.643ZM506.005 332.073C508.01 345.605 519.517 397.629 532.021 439.643L532.979 439.358C520.483 397.371 508.99 345.396 506.995 331.927L506.005 332.073ZM512.481 443.864C511.195 439.315 510.194 431.859 509.422 422.75C508.65 413.652 508.11 402.94 507.737 391.896C506.992 369.809 506.917 346.416 507 332.003L506 331.997C505.917 346.417 505.992 369.825 506.738 391.93C507.111 402.982 507.652 413.713 508.425 422.835C509.198 431.945 510.204 439.486 511.519 444.136L512.481 443.864ZM576.347 545.64C563.141 532.933 548.792 513.224 536.927 493.802C525.058 474.375 515.712 455.297 512.481 443.864L511.519 444.136C514.788 455.704 524.192 474.876 536.073 494.323C547.958 513.777 562.359 533.568 575.653 546.36L576.347 545.64ZM573.845 636.611C574.255 637.228 574.669 637.845 575.085 638.463L575.915 637.904C575.499 637.288 575.087 636.672 574.678 636.057L573.845 636.611ZM575.085 638.463C593.45 665.7 624.562 677.703 659.755 683.893L659.929 682.908C624.816 676.732 594.047 664.796 575.915 637.904L575.085 638.463ZM664.742 641.825C664.094 641.316 663.451 640.805 662.813 640.294L662.187 641.074C662.828 641.588 663.474 642.1 664.125 642.611L664.742 641.825ZM574.708 636.558C590.248 605.517 604.52 570.096 613.985 531.804L613.015 531.564C603.57 569.77 589.328 605.121 573.814 636.11L574.708 636.558ZM613.985 531.804C636.014 442.689 621.494 365.096 610.484 323.057L609.516 323.31C620.506 365.271 634.986 442.678 613.015 531.564L613.985 531.804ZM601.758 766.542C615.546 758.249 628.363 748.237 639.364 736.526L638.636 735.841C627.705 747.477 614.961 757.433 601.242 765.685L601.758 766.542ZM660.335 683.482C662.449 670.664 663.899 657.19 664.932 642.252L663.935 642.183C662.903 657.098 661.456 670.54 659.349 683.319L660.335 683.482ZM576.544 210.987C570.768 197.446 558.921 173.748 547.118 151.534C535.322 129.331 523.542 108.556 517.903 100.887L517.097 101.48C522.684 109.078 534.43 129.783 546.235 152.003C558.035 174.212 569.866 197.88 575.624 211.38L576.544 210.987Z"
          fill="#6C513D"/>
    <path d="M465 0L427 70L472 128L537.5 129L468.5 84.5L465 0Z" fill="#443F50"/>
    <path fill-rule="evenodd" clip-rule="evenodd"
          d="M278 279.684C278 264.484 280 212.684 281 188.684C302 148.35 344 67.0834 344 64.6835C327 48.1835 317.5 44.1835 291.5 46.6835C265.5 49.1835 202.5 139.684 172.5 183.184C148.5 217.984 118.834 245.017 107 254.184C145.5 237.184 180.785 212.684 181.417 211.184C180.108 214.253 179.112 216.798 178.5 218.684C176.843 223.793 171.905 237.791 165.468 256.04C148.598 303.862 121.429 380.884 116 403.684C110 428.884 105.5 462.184 104 475.684C97.0002 497.184 89.0002 538.184 91.5002 610.684C91.8898 621.981 92.3886 632.416 93.0667 642.218C62.8138 665.957 21.5007 686.147 6.00024 692.184C11.6314 691.718 17.3056 691.281 22.9976 690.842C48.206 688.901 73.7641 686.932 97.4829 682.326C102.846 715.516 112.594 744.144 131 782.184C155 831.784 204 868.517 225.5 880.684C180.3 846.684 160.334 790.137 156 766.114C181.127 781.228 209.504 790.629 236 794.184C267.41 798.397 311.834 790.517 330 787.184C314.834 786.35 267.1 764.384 243.5 733.184C226.7 710.973 203.9 677.574 183.319 636.495C216.986 593.045 231.211 548.14 239.784 521.081C240.382 519.192 240.952 517.391 241.5 515.684C250 489.184 265.5 398.684 269.5 375.184C273.5 351.684 278 298.684 278 279.684ZM181 546C191.334 524.5 214.5 473.1 224.5 439.5C237 397.5 248.5 345.5 250.5 332C250.667 360.834 249.7 423.1 244.5 441.5C238 464.5 207.5 520.5 181 546Z"
          fill="#F7DE8B"/>
    <path d="M281 188.684L280.557 188.453L280.505 188.551L280.501 188.663L281 188.684ZM344 64.6835H344.5V64.4721L344.348 64.3248L344 64.6835ZM172.5 183.184L172.089 182.9L172.089 182.9L172.5 183.184ZM107 254.184L106.694 253.788L107.202 254.641L107 254.184ZM181.417 211.184L181.877 211.378L180.957 210.987L181.417 211.184ZM178.5 218.684L178.976 218.838L178.976 218.838L178.5 218.684ZM165.468 256.04L164.996 255.873L164.996 255.873L165.468 256.04ZM116 403.684L115.514 403.568L115.514 403.568L116 403.684ZM104 475.684L104.476 475.838L104.492 475.79L104.497 475.739L104 475.684ZM91.5002 610.684L91.0005 610.701L91.0005 610.701L91.5002 610.684ZM93.0667 642.218L93.3754 642.611L93.5838 642.448L93.5655 642.183L93.0667 642.218ZM6.00024 692.184L5.81878 691.718L6.04146 692.682L6.00024 692.184ZM22.9976 690.842L23.036 691.341L23.036 691.341L22.9976 690.842ZM97.4829 682.326L97.9765 682.246L97.8942 681.736L97.3876 681.835L97.4829 682.326ZM131 782.184L130.55 782.401L130.55 782.401L131 782.184ZM225.5 880.684L225.254 881.119L225.801 880.284L225.5 880.684ZM156 766.114L156.258 765.685L155.312 765.117L155.508 766.203L156 766.114ZM236 794.184L235.934 794.679L235.934 794.679L236 794.184ZM330 787.184L330.09 787.675L330.028 786.684L330 787.184ZM243.5 733.184L243.101 733.485L243.101 733.485L243.5 733.184ZM183.319 636.495L182.924 636.188L182.731 636.437L182.872 636.719L183.319 636.495ZM239.784 521.081L240.26 521.232L240.26 521.232L239.784 521.081ZM241.5 515.684L241.024 515.531L241.024 515.531L241.5 515.684ZM224.5 439.5L224.021 439.358L224.021 439.358L224.5 439.5ZM181 546L180.55 545.784L181.347 546.36L181 546ZM250.5 332L251 331.997L250.006 331.927L250.5 332ZM244.5 441.5L244.981 441.636L244.981 441.636L244.5 441.5ZM183.319 636.495L183.715 636.801L183.907 636.552L183.766 636.271L183.319 636.495ZM182 638.184L182.393 638.493L182.393 638.493L182 638.184ZM97.4829 682.326L96.9893 682.405L97.0716 682.915L97.5782 682.817L97.4829 682.326ZM93.0667 642.218L92.758 641.825L92.5496 641.988L92.5679 642.252L93.0667 642.218ZM144 531.684L144.486 531.564L144.486 531.564L144 531.684ZM280.501 188.663C279.501 212.657 277.5 264.47 277.5 279.684H278.5C278.5 264.497 280.5 212.71 281.5 188.704L280.501 188.663ZM343.5 64.6835C343.5 64.6513 343.505 64.6545 343.487 64.7238C343.471 64.7816 343.446 64.8623 343.408 64.9685C343.333 65.1801 343.218 65.4684 343.063 65.8331C342.754 66.5613 342.296 67.5703 341.702 68.8337C340.515 71.3593 338.794 74.8843 336.662 79.1766C332.398 87.7604 326.492 99.402 319.93 112.231C306.806 137.888 291.056 168.287 280.557 188.453L281.444 188.914C291.944 168.747 307.695 138.346 320.82 112.686C327.383 99.8565 333.29 88.2107 337.557 79.6215C339.691 75.3274 341.415 71.7947 342.607 69.2591C343.203 67.9919 343.667 66.9695 343.984 66.2238C344.142 65.8517 344.265 65.5425 344.35 65.3034C344.393 65.1842 344.428 65.0761 344.453 64.9829C344.475 64.9011 344.5 64.7908 344.5 64.6835H343.5ZM291.548 47.1812C304.525 45.9334 313.312 46.3167 320.958 49.0298C328.603 51.7426 335.165 56.8047 343.652 65.0423L344.348 64.3248C335.836 56.0624 329.147 50.8745 321.292 48.0873C313.438 45.3004 304.475 44.9336 291.452 46.1858L291.548 47.1812ZM172.912 183.467C187.913 161.716 211.153 128.23 233.89 99.8713C245.26 85.6906 256.493 72.8046 266.501 63.3119C271.504 58.5653 276.191 54.677 280.427 51.9005C284.671 49.1181 288.418 47.4822 291.548 47.1812L291.452 46.1858C288.083 46.5099 284.173 48.249 279.878 51.0642C275.575 53.8854 270.84 57.8174 265.812 62.5864C255.757 72.1249 244.491 85.0515 233.11 99.2458C210.347 127.637 187.088 161.151 172.089 182.9L172.912 183.467ZM107.306 254.579C119.173 245.386 148.878 218.317 172.912 183.467L172.089 182.9C148.123 217.651 118.494 244.648 106.694 253.788L107.306 254.579ZM180.956 210.989C180.976 210.942 180.983 210.953 180.895 211.046C180.823 211.122 180.715 211.223 180.57 211.351C180.279 211.607 179.858 211.948 179.312 212.368C178.22 213.208 176.647 214.349 174.652 215.734C170.662 218.501 164.996 222.231 158.147 226.445C144.447 234.875 126.021 245.238 106.798 253.726L107.202 254.641C126.479 246.129 144.946 235.742 158.671 227.297C165.534 223.074 171.215 219.335 175.221 216.555C177.224 215.166 178.812 214.014 179.922 213.161C180.476 212.735 180.916 212.379 181.23 212.102C181.386 211.965 181.518 211.841 181.619 211.735C181.703 211.647 181.818 211.518 181.877 211.378L180.956 210.989ZM178.976 218.838C179.581 216.973 180.57 214.444 181.877 211.38L180.957 210.987C179.646 214.061 178.643 216.622 178.025 218.529L178.976 218.838ZM165.939 256.206C172.375 237.962 177.316 223.955 178.976 218.838L178.025 218.529C176.37 223.631 171.436 237.619 164.996 255.873L165.939 256.206ZM116.487 403.799C121.907 381.033 149.063 304.05 165.939 256.206L164.996 255.873C148.134 303.675 120.95 380.735 115.514 403.568L116.487 403.799ZM104.497 475.739C105.996 462.246 110.494 428.97 116.487 403.799L115.514 403.568C109.507 428.797 105.004 462.121 103.503 475.628L104.497 475.739ZM91.9999 610.666C89.5014 538.207 97.4985 497.268 104.476 475.838L103.525 475.529C96.502 497.099 88.4991 538.16 91.0005 610.701L91.9999 610.666ZM93.5655 642.183C92.8879 632.389 92.3894 621.96 91.9999 610.666L91.0005 610.701C91.3902 622.002 91.8893 632.443 92.5679 642.252L93.5655 642.183ZM6.1817 692.65C21.7157 686.599 63.0748 666.388 93.3754 642.611L92.758 641.825C62.5528 665.527 21.2856 685.694 5.81878 691.718L6.1817 692.65ZM22.9592 690.344C17.2674 690.782 11.5918 691.219 5.95903 691.685L6.04146 692.682C11.671 692.216 17.3437 691.779 23.036 691.341L22.9592 690.344ZM97.3876 681.835C73.7021 686.435 48.1736 688.402 22.9592 690.344L23.036 691.341C48.2384 689.4 73.8261 687.429 97.5782 682.817L97.3876 681.835ZM131.45 781.966C113.059 743.958 103.33 715.376 97.9765 682.246L96.9893 682.405C102.362 715.656 112.129 744.331 130.55 782.401L131.45 781.966ZM225.746 880.248C204.294 868.108 155.389 831.439 131.45 781.966L130.55 782.401C154.611 832.128 203.707 868.925 225.254 881.119L225.746 880.248ZM155.508 766.203C159.854 790.296 179.862 846.98 225.2 881.083L225.801 880.284C180.738 846.387 160.813 789.978 156.492 766.025L155.508 766.203ZM236.067 793.688C209.635 790.142 181.324 780.762 156.258 765.685L155.743 766.542C180.931 781.693 209.373 791.116 235.934 794.679L236.067 793.688ZM329.91 786.692C311.726 790.028 267.383 797.889 236.067 793.688L235.934 794.679C267.437 798.905 311.942 791.005 330.09 787.675L329.91 786.692ZM243.101 733.485C254.958 749.16 272.855 762.492 289.666 772.006C298.076 776.765 306.225 780.575 313.227 783.249C320.216 785.918 326.102 787.47 329.973 787.683L330.028 786.684C326.315 786.48 320.547 784.974 313.583 782.315C306.632 779.661 298.529 775.873 290.159 771.136C273.412 761.658 255.642 748.407 243.899 732.882L243.101 733.485ZM182.872 636.719C203.47 677.832 226.288 711.257 243.101 733.485L243.899 732.882C227.112 710.689 204.33 677.316 183.766 636.271L182.872 636.719ZM239.307 520.93C230.736 547.985 216.532 592.815 182.924 636.188L183.715 636.801C217.44 593.276 231.687 548.295 240.26 521.232L239.307 520.93ZM241.024 515.531C240.476 517.24 239.905 519.042 239.307 520.93L240.26 521.232C240.859 519.343 241.429 517.543 241.976 515.836L241.024 515.531ZM269.007 375.1C267.007 386.849 262.133 415.346 256.696 444.216C251.257 473.101 245.263 502.317 241.024 515.531L241.976 515.836C246.238 502.55 252.244 473.266 257.679 444.401C263.117 415.522 267.993 387.018 269.993 375.267L269.007 375.1ZM277.5 279.684C277.5 298.653 273.003 351.625 269.007 375.1L269.993 375.267C273.998 351.742 278.5 298.714 278.5 279.684H277.5ZM224.021 439.358C214.033 472.916 190.882 524.285 180.55 545.784L181.451 546.217C191.785 524.715 214.967 473.284 224.98 439.643L224.021 439.358ZM250.006 331.927C248.01 345.396 236.517 397.371 224.021 439.358L224.98 439.643C237.484 397.629 248.99 345.605 250.995 332.073L250.006 331.927ZM244.981 441.636C246.295 436.988 247.333 429.606 248.153 420.729C248.973 411.842 249.577 401.423 250.012 390.683C250.884 369.203 251.084 346.42 251 331.997L250 332.003C250.084 346.414 249.884 369.181 249.013 390.642C248.578 401.373 247.975 411.773 247.157 420.637C246.338 429.511 245.306 436.812 244.019 441.364L244.981 441.636ZM181.347 546.36C194.646 533.563 208.923 513.142 220.682 493.065C232.438 472.991 241.714 453.198 244.981 441.636L244.019 441.364C240.787 452.803 231.562 472.509 219.819 492.56C208.077 512.608 193.855 532.937 180.654 545.64L181.347 546.36ZM182.924 636.188C182.488 636.751 182.05 637.313 181.607 637.874L182.393 638.493C182.837 637.929 183.277 637.365 183.715 636.801L182.924 636.188ZM181.607 637.874C161.726 663.129 131.514 675.207 97.3876 681.835L97.5782 682.817C131.795 676.171 162.292 664.026 182.393 638.493L181.607 637.874ZM93.3754 642.611C94.0265 642.1 94.6726 641.588 95.3132 641.074L94.6873 640.294C94.0495 640.805 93.4064 641.316 92.758 641.825L93.3754 642.611ZM183.766 636.271C168.221 605.243 153.946 569.835 144.486 531.564L143.515 531.804C152.997 570.162 167.301 605.639 182.872 636.719L183.766 636.271ZM144.486 531.564C122.514 442.678 136.994 365.271 147.984 323.31L147.017 323.057C136.006 365.096 121.487 442.689 143.515 531.804L144.486 531.564ZM156.258 765.685C142.539 757.433 129.796 747.477 118.865 735.841L118.136 736.526C129.137 748.237 141.954 758.249 155.743 766.542L156.258 765.685ZM97.9765 682.246C95.9634 669.787 94.5684 656.681 93.5655 642.183L92.5679 642.252C93.5723 656.772 94.9702 669.91 96.9893 682.405L97.9765 682.246ZM181.877 211.38C187.634 197.88 199.465 174.212 211.265 152.003C223.071 129.783 234.816 109.078 240.403 101.48L239.597 100.887C233.959 108.556 222.178 129.331 210.382 151.534C198.58 173.748 186.732 197.446 180.957 210.987L181.877 211.38Z"
          fill="#6C513D"/>
    <path d="M419.5 260.5C414.5 266.5 393.167 275.667 380.5 282C368.833 277.167 351 270 341.5 262.5C332.603 255.476 323 243 315.18 218C308.924 197.999 312.347 152.167 312.681 132H445.68C447.514 149.333 446.581 197.6 442.181 218C436.681 243.5 424.5 254.5 419.5 260.5Z"
          fill="#FDF4E2" stroke="#979797"/>
    <path d="M293.5 0L331.5 70L286.5 128L221 129L290 84.5L293.5 0Z" fill="#443F50"/>
    <path d="M759 522.5C758 522.5 644.5 491 572 426C499.5 361 467.5 270 458 221.5L464.25 205.25L470.5 189C480.5 210.5 505.8 261.6 527 294C536.959 309.221 548.967 326.843 561.032 344C581.069 372.494 601.265 399.704 612.5 412.5C630.5 433 686 484.5 759 522.5Z"
          fill="#F7DE8B"/>
    <path d="M561.032 344C548.967 326.843 536.959 309.221 527 294C505.8 261.6 480.5 210.5 470.5 189L464.25 205.25M561.032 344C581.069 372.494 601.265 399.704 612.5 412.5C630.5 433 686 484.5 759 522.5C758 522.5 644.5 491 572 426C499.5 361 467.5 270 458 221.5L464.25 205.25M561.032 344C560.329 343 487.5 250.5 464.25 205.25"
          stroke="#6C513D"/>
    <path d="M0.999644 520.373C1.99951 520.39 116.029 489.466 189.645 422.967C263.26 356.468 296.831 262.214 307.169 211.854L301.201 194.824L295.234 177.794C284.863 200.022 258.682 252.828 236.924 286.223C226.702 301.912 214.391 320.068 202.031 337.738C181.503 367.084 160.839 395.091 149.384 408.232C131.031 429.286 74.6475 482.006 0.999644 520.373Z"
          fill="#F7DE8B"/>
    <path d="M202.031 337.738C214.391 320.068 226.702 301.912 236.924 286.223C258.682 252.828 284.863 200.022 295.234 177.794L301.201 194.824M202.031 337.738C181.503 367.084 160.839 395.091 149.384 408.232C131.031 429.286 74.6475 482.006 0.999644 520.373C1.99951 520.39 116.029 489.466 189.645 422.967C263.26 356.468 296.831 262.214 307.169 211.854L301.201 194.824M202.031 337.738C202.751 336.708 277.171 241.57 301.201 194.824"
          stroke="#6C513D"/>
    <path d="M369 216.999C367 219.499 358.5 226.499 356.5 227.499C361.061 219.956 364.187 211.046 366.314 202.618C361.237 191.963 358.659 165.856 358 154C349.286 168.117 337.846 178.829 325.5 186.999C321.684 190.699 317.078 202.582 314.5 206.499C320.144 220.707 331.729 232.652 338.5 239C329.98 235.067 323.125 230.813 317.723 226.863C320.183 236.109 324.692 244.221 325.5 246C325.1 250.4 324.5 265.5 324 273C318.488 261.187 310.262 245.338 307.622 237.85L307 237L301 247.5C300.462 245.5 301 231.5 301.538 229C296.062 220.411 291.923 212.066 288.934 204.934C287.257 205.529 285.704 206.054 284.296 206.512C284.874 213.286 285.525 219.957 286 224.5C282.972 219.677 280.8 214 279.251 208.072C277.517 208.579 276.386 208.88 276 209C276.914 208.552 277.958 208.036 279.095 207.466C276.675 197.916 275.844 187.77 275.644 179.529C273.031 182.933 264.05 186.925 265 185.5C265.8 184.3 267.667 179 268.5 176.5C265.3 178.1 255.5 178.5 251 178.5C255.8 174.1 276.333 141.422 286 125.634C279.634 125.542 273.619 125.246 270 125C275.442 122.17 284.388 116.645 292.971 111.149C292.946 107.759 299.247 97.5955 322 75.9996C345.6 53.5996 374.167 54.3328 385.5 57.4995C424 56.9995 454.5 93.4995 462 110C468 123.2 490.5 155.833 502 170.999C488.8 168.199 480.019 162.166 477.278 159.499C483.423 197.83 470.291 224.32 462 233.499C462.833 227.499 464.094 213.8 464.494 213C462.163 217.666 456.3 228.299 451.5 233.499C446.239 244.744 435.868 261.619 431 270.999C431.5 267.999 433 245.999 433 244.999C433 243.999 427.5 254.999 433 243.999C437.4 235.199 441.833 218.87 443.5 211.806C435.849 221.009 431.714 226.17 427 230.5C436.114 217.041 438.51 206.559 442.931 193.66C435.669 170.991 416.94 139.978 408.266 126.999C406.918 144.697 400.826 161.439 397.148 168.999C395.664 187.506 392.664 204.449 391 211.999C391 210.399 390.667 194.666 390.5 186.999C388.9 190.999 380.5 203.999 376.5 209.999C373.7 216.799 370 224.499 368.5 227.499C368.9 226.699 369 220.166 369 216.999Z"
          fill="#F7DE8B"/>
    <path d="M390.5 186.999C388.9 190.999 380.5 203.999 376.5 209.999C373.7 216.799 370 224.499 368.5 227.499C368.9 226.699 369 220.166 369 216.999C367 219.499 358.5 226.499 356.5 227.499C366.9 210.299 369.833 185.999 370.5 176.5M390.5 186.999C390.333 179.499 389.8 163.499 389 159.499M390.5 186.999C390.667 194.666 391 210.399 391 211.999C392.664 204.449 395.664 187.506 397.148 168.999M393.5 110.999C395.167 114.499 398.4 127.599 398 151.999C397.907 157.665 397.597 163.403 397.148 168.999M397.148 168.999C400.826 161.439 406.918 144.697 408.266 126.999M408 110.999C408.647 116.27 408.671 121.678 408.266 126.999M408.266 126.999C417.177 140.333 436.7 172.699 443.5 195.499M408 85.4995C420 94.6661 444.9 124.199 448.5 168.999M448.5 104.999C448.5 105.999 466 165.5 427.5 230C432.214 225.67 435.849 221.009 443.5 211.806M458 190.999C454.449 197.764 449.104 205.065 443.5 211.806M443.5 211.806C441.833 218.87 437.562 235.063 432.5 243.5C433 247.5 432.196 263.826 431 270.999C435.868 261.619 446.239 244.744 451.5 233.499M455.78 223.499C455.205 225.34 453.624 228.961 451.5 233.499M451.5 233.499C456.593 227.666 465.8 213.099 469 201.499M464.5 213.5C464.1 214.3 462.833 227.499 462 233.499C470.291 224.32 483.423 197.83 477.278 159.499M474 144.499C475.429 149.679 476.506 154.683 477.278 159.499M477.278 159.499C480.019 162.166 488.8 168.199 502 170.999C490.5 155.833 468 123.2 462 110C454.5 93.4995 424 56.9995 385.5 57.4995C374.167 54.3328 345.6 53.5996 322 75.9996C298.4 98.3996 292.833 108.666 293 110.999M346 70.9995C345 71.4995 317 81.4994 302 104.999M311.5 98.9995C301.833 105.5 280 119.8 270 125C273.619 125.246 279.634 125.542 286 125.634M304.5 125C299.435 125.607 292.533 125.728 286 125.634M286 125.634C276.333 141.422 255.8 174.1 251 178.5C255.5 178.5 265.3 178.1 268.5 176.5C267.667 179 265.8 184.3 265 185.5C264 186.999 273.643 183 275.643 179.5M276 162.5C276 164.5 272.5 203 286 224.5C285.025 215.171 283.306 196.862 283 187.123M283 182.5C282.934 183.619 282.94 185.205 283 187.123M283 187.123C284.453 194.06 290.058 210.993 301.538 229M307 237C322.2 257.8 313.667 246 307.5 237.5C310 244.833 318.4 261 324 273C324.5 265.5 325.6 249.4 326 245C325.167 243.166 322 238 318.5 229M307 237C305.048 234.329 303.229 231.652 301.538 229M307 237L301 247.5C300.462 245.5 301 231.5 301.538 229M301 211.806C302 211.999 312.5 227 338.5 239C331.729 232.652 320.144 220.707 314.5 206.499M310 196C310.43 198.397 313.475 203.92 314.5 206.499M366.5 203C361.3 192.6 358.667 166 358 154C349.286 168.117 337.846 178.829 325.5 186.999M333 173C321.507 174.178 312.059 172.679 304.5 169.883M304.5 169.883C305.5 168 307.5 131.5 350.5 86.9995M304.5 169.883C302.918 169.297 301.418 168.655 300 167.968C289.801 163.031 283.811 155.806 281.5 151C281.1 179.8 296.667 191 304.5 193C299.7 197 283.5 205.333 276 209C278.105 208.348 302.426 202.268 325.5 186.999M361 135C362.5 121.5 368 91.6995 378 80.4995M314.5 206.499C317.078 202.582 321.684 190.699 325.5 186.999"
          stroke="#6C523D"/>
    <path d="M372.5 834.5C381.5 818 395.5 763 395.5 759.5L270.5 762.5C256.1 772.9 231.167 912.5 220.5 981C217.7 987 211 1013.5 208 1026C196.333 1049 170.2 1101.8 159 1129C145 1163 141.5 1197.5 139.5 1219.5C137.9 1237.1 131.167 1287.5 128 1310.5L169 1316C175.833 1293.17 192 1242.7 202 1223.5C212 1204.3 236.833 1133.17 248 1100C281 1061 297.5 1011 303.5 992.5C309.5 974 363.5 851 372.5 834.5Z"
          fill="#FDF4E2" stroke="#404040"/>
    <path d="M134 1268C134.8 1268.4 164.819 1278.67 179.229 1283.5C182.523 1273.52 186.103 1263.08 189.617 1253.53C172.496 1247.69 138.702 1236 138 1236C137.538 1240 135.1 1259 134 1268Z"
          fill="#5C6073" stroke="#404040"/>
    <path d="M469 987C459.4 959.4 433 828.5 421 766.5L504 727.5L544 735.5C554 746.5 556.5 854.5 554.5 900.5C552.9 937.3 555.166 1004.17 556.5 1033C566 1053 578.5 1112.5 582 1139.5C585.5 1166.5 575.5 1234.5 573.5 1247.5C571.9 1257.9 568.5 1296.5 567 1314.5L525 1309.5C523.5 1292.5 520 1255.9 518 1245.5C515.5 1232.5 508 1150 508.5 1139.5C508.9 1131.1 505.333 1103.33 503.5 1090.5C487.1 1062.1 473.666 1009.67 469 987Z"
          fill="#FDF4E2" stroke="#404040"/>
    <mask id="mask0_303_2077" style="mask-type:alpha" maskUnits="userSpaceOnUse" x="421" y="727" width="162"
          height="588">
        <path d="M469.484 987.058C459.987 959.505 433.871 828.828 422 766.934L504.109 728L543.679 735.986C553.572 746.968 556.045 854.784 554.066 900.705C552.483 937.443 554.726 1004.2 556.045 1032.98C565.443 1052.95 577.809 1112.34 581.271 1139.3C584.733 1166.25 574.841 1234.14 572.862 1247.11C571.279 1257.5 567.916 1296.03 566.432 1314L524.883 1309.01C523.399 1292.04 519.937 1255.5 517.958 1245.12C515.485 1232.14 508.066 1149.78 508.56 1139.3C508.956 1130.91 505.428 1103.19 503.614 1090.38C487.39 1062.03 474.101 1009.69 469.484 987.058Z"
              fill="#FDF4E2" stroke="#404040"/>
    </mask>
    <g mask="url(#mask0_303_2077)">
        <path d="M437.079 823.016C435.58 824.015 436.08 840.007 436.08 842.006L440.577 869.992C442.409 873.157 446.273 879.887 447.072 881.486C448.072 883.485 450.07 885.984 450.57 882.486C450.97 879.687 452.402 867.327 453.069 861.497C473.055 848.503 472.056 849.003 472.056 847.504C472.056 846.304 457.732 845.338 450.57 845.005C441.576 828.013 438.578 822.016 437.079 823.016Z"
              fill="#5F5E73"/>
        <path d="M501.537 855C499.538 855.4 498.705 869.159 498.539 875.989C488.046 880.987 479.551 886.484 480.551 888.483C481.35 890.082 493.875 890.482 500.038 890.482C503.535 898.311 510.831 913.77 512.03 912.97C513.229 912.171 513.862 896.978 514.029 889.482C519.692 886.151 530.918 879.187 530.518 877.988C530.118 876.789 518.026 874.157 512.03 872.991C509.365 866.827 503.535 854.6 501.537 855Z"
              fill="#5F5E73"/>
        <path d="M551.504 806.025C552.303 806.425 553.503 810.856 554.002 813.021L558 816.52L555.002 867.493C552.603 863.096 548.006 852.335 546.008 847.504C533.016 845.005 519.025 843.506 521.524 841.507C523.522 839.908 538.679 832.511 546.008 829.013C548.006 812.522 550.505 805.525 551.504 806.025Z"
              fill="#5F5E73"/>
        <path d="M437.079 823.016C435.58 824.015 436.08 840.007 436.08 842.006L440.577 869.992C442.409 873.157 446.273 879.887 447.072 881.486C448.072 883.485 450.07 885.984 450.57 882.486C450.97 879.687 452.402 867.327 453.069 861.497C473.055 848.503 472.056 849.003 472.056 847.504C472.056 846.304 457.732 845.338 450.57 845.005C441.576 828.013 438.578 822.016 437.079 823.016Z"
              stroke="black"/>
        <path d="M501.537 855C499.538 855.4 498.705 869.159 498.539 875.989C488.046 880.987 479.551 886.484 480.551 888.483C481.35 890.082 493.875 890.482 500.038 890.482C503.535 898.311 510.831 913.77 512.03 912.97C513.229 912.171 513.862 896.978 514.029 889.482C519.692 886.151 530.918 879.187 530.518 877.988C530.118 876.789 518.026 874.157 512.03 872.991C509.365 866.827 503.535 854.6 501.537 855Z"
              stroke="black"/>
        <path d="M551.504 806.025C552.303 806.425 553.503 810.856 554.002 813.021L558 816.52L555.002 867.493C552.603 863.096 548.006 852.335 546.008 847.504C533.016 845.005 519.025 843.506 521.524 841.507C523.522 839.908 538.679 832.511 546.008 829.013C548.006 812.522 550.505 805.525 551.504 806.025Z"
              stroke="black"/>
    </g>
    <path d="M363 250.5C364.833 253.167 370.7 258.5 379.5 258.5C388.3 258.5 393.833 253.167 395.5 250.5"
          stroke="url(#paint0_linear_303_2077)"/>
    <path d="M379 233.5V237" stroke="#D9CFBC"/>
    <path d="M332.216 206.14C331.167 198.04 333.79 193.18 334.315 192.64C345.648 191.344 354.603 199.3 357.401 203.44C357.594 206.212 358.129 208 357.401 212C356.129 219 351.56 224.501 346.907 224.501C339.562 224.501 333.265 214.24 332.216 206.14Z"
          fill="#6DA4E5"/>
    <path d="M333.79 192.64C327.914 192.64 319.973 197.86 317 200.74C317.946 198.305 323.158 191.042 333.79 190.033V184C334.63 185.296 336.938 188.52 337.988 189.969C348.242 190.699 356.576 200.281 359.5 205.06C345.858 192.1 341.136 192.64 333.79 192.64Z"
          fill="#3F393F"/>
    <mask id="mask1_303_2077" style="mask-type:alpha" maskUnits="userSpaceOnUse" x="331" y="192" width="27" height="33">
        <path d="M332.216 206.14C331.167 198.04 333.79 193.18 334.315 192.64C345.648 191.344 354.603 198.76 357.401 202.9C357.926 210.46 354.253 224.501 346.907 224.501C339.562 224.501 333.265 214.24 332.216 206.14Z"
              fill="#6DA4E5"/>
    </mask>
    <g mask="url(#mask1_303_2077)">
        <path d="M343.235 202.9C336.414 202.36 333.79 211 333.79 212.08C333.265 212.08 331.167 210.568 329.068 208.84C326.969 207.112 325.045 192.64 324.346 185.62L343.235 181.84L363.173 200.74C361.774 205.78 357.611 215.752 356.352 213.16C354.778 209.92 350.725 203.493 343.235 202.9Z"
              fill="#7460A2"/>
    </g>
    <path d="M350.07 203.652C350.265 206.016 349.907 208.179 349.195 209.759C348.475 211.357 347.452 212.252 346.364 212.348C345.277 212.443 344.121 211.738 343.149 210.289C342.188 208.855 341.48 206.786 341.284 204.422C341.089 202.057 341.447 199.895 342.159 198.315C342.879 196.717 343.902 195.821 344.99 195.726C346.077 195.631 347.233 196.335 348.205 197.785C349.166 199.219 349.874 201.288 350.07 203.652Z"
          fill="#D9D9D9" stroke="#6F6F6F"/>
    <path d="M426.605 206.14C427.666 198.04 425.012 193.18 424.481 192.64C413.015 191.344 403.955 199.3 401.123 203.44C400.592 211 404.308 224.501 411.741 224.501C419.173 224.501 425.543 214.24 426.605 206.14Z"
          fill="#6DA4E5"/>
    <path d="M425.012 192.64C430.958 192.64 438.992 197.86 442 200.74C441.042 198.305 435.769 191.042 425.012 190.033V184C424.163 185.296 421.827 188.52 420.765 189.969C410.39 190.699 401.958 200.281 399 205.06C412.802 192.1 417.58 192.64 425.012 192.64Z"
          fill="#3F393F"/>
    <mask id="mask2_303_2077" style="mask-type:alpha" maskUnits="userSpaceOnUse" x="401" y="192" width="26" height="33">
        <path d="M426.605 206.14C427.666 198.04 425.012 193.18 424.481 192.64C413.015 191.344 403.954 198.76 401.123 202.9C401.123 213 404.308 224.501 411.741 224.501C419.173 224.501 425.543 214.24 426.605 206.14Z"
              fill="#6DA4E5"/>
    </mask>
    <g mask="url(#mask2_303_2077)">
        <path d="M415.457 202.9C422.358 202.36 425.012 211 425.012 212.08C425.543 212.08 427.666 210.568 429.79 208.84C431.913 207.112 433.86 192.64 434.568 185.62L415.457 181.84L395.284 200.74C396.699 205.78 400.911 215.752 402.185 213.16C403.778 209.92 407.878 203.493 415.457 202.9Z"
              fill="#7460A2"/>
    </g>
    <path d="M408.535 203.652C408.337 206.015 408.7 208.177 409.42 209.756C410.148 211.353 411.184 212.252 412.29 212.348C413.397 212.443 414.567 211.735 415.55 210.287C416.522 208.854 417.238 206.785 417.436 204.422C417.634 202.059 417.271 199.897 416.551 198.317C415.823 196.721 414.787 195.822 413.681 195.726C412.574 195.63 411.404 196.338 410.421 197.787C409.449 199.22 408.733 201.288 408.535 203.652Z"
          fill="#D9D9D9" stroke="#767676"/>
    <path d="M318 199C318 200.182 323.192 217.318 333 225" stroke="url(#paint1_linear_303_2077)"/>
    <path d="M440 199C440 200.182 434.807 217.318 425 225" stroke="url(#paint2_linear_303_2077)"/>
    <path d="M401.5 177.001C403 176.001 411 167 433 168.5M353.5 178.001C351.333 175.834 346.7 171.9 343.5 171.5"
          stroke="#B8AB9A" stroke-width="1.5"/>
    <path d="M402 195C404.5 192.5 409.5 188.5 413.5 188.5M357 195C355.5 192.833 350.8 188.5 344 188.5"
          stroke="url(#paint3_linear_303_2077)"/>
    <path d="M390 53.1808C370.654 62.8302 358.72 102.539 355 122.533C357 81.0326 378.5 30.5326 389 32.0326C399.5 33.5326 403 67.5326 402.5 68.5326C399.5 60.5326 390.5 53.5326 390 53.1808Z"
          fill="#F7DE8B"/>
    <path d="M394.5 51.5326C392.958 51.8971 391.458 52.4536 390 53.1808M390 53.1808C370.654 62.8302 358.72 102.539 355 122.533C357 81.0326 378.5 30.5326 389 32.0326C399.5 33.5326 403 67.5326 402.5 68.5326C399.5 60.5326 390.5 53.5326 390 53.1808Z"
          stroke="#6C513D"/>
    <path d="M313.687 386C301.687 394.5 293 408.5 291 417.5L289.529 425.5C288.729 425.5 286.02 426 283.687 426C276.623 435.2 228.757 467.167 205.706 482C209.291 487.456 212.911 493.881 215.084 498C221.619 501.108 228.664 505.756 231.687 511.5C235.687 519.1 271 556.167 287 572.5C269 592.5 246.333 607.333 237 612.5C222.6 600.5 188.548 564.833 174.729 549.5C161.385 538.164 150.123 528.297 146.687 524.5C137.187 514 131.687 509.5 128.687 498C125.687 486.5 133.187 472 138.187 465C143.187 458 186.687 417.5 191.687 412C195.687 407.6 199.02 408.167 200.187 409C210.187 397.5 230.587 373.9 232.187 371.5C233.787 369.1 239.187 371.167 241.687 372.5C242.187 369.5 258.687 338.794 260.187 334.748C261.387 331.511 268.354 331.567 271.687 332L342.187 313.5C341.687 309.833 342.187 303 348.187 305V283H350.187H394.687H400.687H410.187V306.5C412.187 305.833 416.887 306.3 419.687 313.5C419.853 313.926 419.999 314.313 420.128 314.663C424.678 316.389 461.139 330.708 479.687 338C485.187 336.5 493.187 333.5 501.687 338C510.187 342.5 511.187 348.5 511.687 356C512.087 362 511.854 402.5 511.687 422C511.687 423.167 510.887 425.9 507.687 427.5C504.487 429.1 500.02 433.167 498.187 435L471.187 417.5C469.687 412.167 465.287 400.2 459.687 395C454.087 389.8 406.354 355.363 383.187 338.794C356.639 356.702 321.389 380.545 313.687 386Z"
          fill="white"/>
    <path d="M400.687 283V327C397.299 329.281 393.407 331.903 389.187 334.748M400.687 283H394.687M400.687 283H410.187V306.5C412.187 305.833 416.887 306.3 419.687 313.5C423.187 322.5 418.187 314 419.687 314.5C420.887 314.9 460.187 330.333 479.687 338M291 417.5C293 408.5 301.687 394.5 313.687 386C321.389 380.545 356.639 356.702 383.187 338.794M291 417.5L289.529 425.5C288.729 425.5 286.02 426 283.687 426M291 417.5C290.571 415.822 290.788 413.98 290.287 412M271.687 332L342.187 313.5C341.687 309.833 342.187 303 348.187 305M271.687 332C274.503 348.194 283.722 385.971 289.529 409M271.687 332C268.354 331.567 261.387 331.511 260.187 334.748C258.687 338.794 242.187 369.5 241.687 372.5C239.187 371.167 233.787 369.1 232.187 371.5C230.587 373.9 210.187 397.5 200.187 409C199.02 408.167 195.687 407.6 191.687 412C186.687 417.5 143.187 458 138.187 465C133.187 472 125.687 486.5 128.687 498C131.687 509.5 137.187 514 146.687 524.5C150.123 528.297 161.385 538.164 174.729 549.5M348.187 305V283H350.187H394.687M348.187 305C358.52 310.833 380.387 323.1 385.187 325.5M394.687 283V324.5C369.187 340.833 316.587 374.6 310.187 379C302.187 384.5 290.37 396.5 289.529 409M289.529 409C289.788 410.031 290.041 411.032 290.287 412M479.687 338L472.416 406M479.687 338C485.187 336.5 493.187 333.5 501.687 338C510.187 342.5 511.187 348.5 511.687 356C512.087 362 511.854 402.5 511.687 422C511.687 423.167 510.887 425.9 507.687 427.5C504.487 429.1 500.02 433.167 498.187 435L471.187 417.5M471.187 417.5C469.687 412.167 465.287 400.2 459.687 395C454.087 389.8 406.354 355.363 383.187 338.794M471.187 417.5L472.416 406M383.187 338.794C385.245 337.406 387.25 336.054 389.187 334.748M389.187 334.748C413.687 351.999 463.087 387.2 464.687 390C466.687 393.5 470.146 396 472.416 406M222.187 589C210.132 579.137 190.902 563.24 174.729 549.5M174.729 549.5C188.548 564.833 222.6 600.5 237 612.5C246.333 607.333 269 592.5 287 572.5C271 556.167 235.687 519.1 231.687 511.5C228.664 505.756 221.619 501.108 215.084 498M166.187 479.5C176.687 483.833 198.987 492.8 204.187 494C206.757 494.593 210.811 495.968 215.084 498M215.084 498C212.911 493.881 209.291 487.456 205.706 482M166.187 469C174.687 469.167 192.787 470 197.187 472C199.273 472.948 202.475 477.081 205.706 482M205.706 482C228.757 467.167 276.623 435.2 283.687 426M283.687 426C268.187 424.667 230.587 420 204.187 412M290.287 412C274.92 402.833 243.587 383.3 241.187 378.5"
          stroke="#979797"/>
    <path d="M249.901 533.5C251.663 535.433 253.49 537.421 255.354 539.434C244.109 555.203 222.777 570.991 210.077 579.166C208.352 580.276 206.785 581.246 205.426 582.057L205.285 582.029C203.326 580.021 201.37 578.004 199.438 576C200.552 575.443 201.924 574.69 203.518 573.741C201.044 571.691 198.506 569.583 195.939 567.445C194.814 568.081 193.796 568.634 192.899 569.102L192.815 569.084C191.166 567.351 189.556 565.65 188 564C188.666 563.638 189.423 563.207 190.263 562.708C199.667 557.124 219.526 543.021 239.354 521.629C241.134 523.707 243.141 525.99 245.308 528.413V528.583C228.304 547.031 206.988 561.202 195.939 567.445C198.506 569.583 201.044 571.691 203.518 573.741C213.369 567.874 231.685 554.503 249.901 533.5Z"
          fill="#FBDF99"/>
    <path d="M203.518 573.741C201.924 574.69 200.552 575.443 199.438 576C201.37 578.004 203.326 580.021 205.285 582.029L205.426 582.057C206.785 581.246 208.352 580.276 210.077 579.166M203.518 573.741C213.369 567.874 231.685 554.503 249.901 533.5C251.663 535.433 253.49 537.421 255.354 539.434C244.109 555.203 222.777 570.991 210.077 579.166M203.518 573.741C205.766 575.605 207.962 577.42 210.077 579.166M203.518 573.741C199.232 570.189 194.752 566.462 190.263 562.708M190.263 562.708C189.423 563.207 188.666 563.638 188 564C189.556 565.65 191.166 567.351 192.815 569.084L192.899 569.102C202.602 564.043 226.572 548.91 245.308 528.583V528.413C243.141 525.99 241.134 523.707 239.354 521.629C219.526 543.021 199.667 557.124 190.263 562.708Z"
          stroke="#979797"/>
    <path d="M400.658 283V327C397.27 329.281 393.379 331.903 389.158 334.748C413.658 351.999 463.058 387.2 464.658 390C466.658 393.5 470.118 396 472.388 406L471.158 417.5C469.658 412.167 465.258 400.2 459.658 395C454.058 389.8 406.325 355.363 383.158 338.794C356.61 356.702 321.36 380.545 313.658 386C301.658 394.5 292.971 408.5 290.971 417.5C290.542 415.822 290.76 413.98 290.258 412C290.013 411.032 289.76 410.031 289.5 409C290.342 396.5 302.158 384.5 310.158 379C316.558 374.6 369.158 340.833 394.658 324.5V283H400.658Z"
          fill="#F1DE97"/>
    <path d="M383.158 338.794C356.61 356.702 321.36 380.545 313.658 386C301.658 394.5 292.971 408.5 290.971 417.5C290.542 415.822 290.76 413.98 290.258 412C290.013 411.032 289.76 410.031 289.5 409C290.342 396.5 302.158 384.5 310.158 379C316.558 374.6 369.158 340.833 394.658 324.5V283H400.658V327C397.27 329.281 393.379 331.903 389.158 334.748M383.158 338.794C406.325 355.363 454.058 389.8 459.658 395C465.258 400.2 469.658 412.167 471.158 417.5L472.388 406C470.118 396 466.658 393.5 464.658 390C463.058 387.2 413.658 351.999 389.158 334.748M383.158 338.794C385.216 337.406 387.222 336.054 389.158 334.748"
          stroke="#979797"/>
    <path d="M447.833 307.677C449.89 310.108 452.174 311.76 454.243 312.846C453.114 314.278 451.819 316.811 452.833 319.177C454.033 321.977 453.333 327.01 452.833 329.177C441 357.343 416.333 416.977 412.333 430.177C407.333 446.677 403.333 462.677 403.333 469.177C403.333 475.677 404.833 479.677 413.333 495.177C421.833 510.677 430.333 510.177 437.333 510.177C442.933 510.177 449 507.177 451.333 505.677C458.833 505.677 459.333 505.677 463.333 502.177C466.533 499.377 471.333 491.01 473.333 487.177C499.833 474.177 503.5 467.5 505 466C506.2 464.8 506.167 463.5 506 463C506.8 425.8 485.76 410.177 475.973 406.677C476.093 404.964 476.213 403.136 476.333 401.177C477.833 376.677 485.333 340.677 486.833 326.177C488.333 311.677 487.333 311.177 487.333 304.677C487.333 298.177 472.333 262.677 468.333 250.677C464.333 238.677 465.333 196.677 465.333 194.677C465.333 192.677 463.333 191.677 460.833 192.677C458.333 193.677 455.833 199.677 454.833 205.677C453.833 211.677 453.833 233.677 453.787 235.677C453.285 234.669 452.799 233.666 452.333 232.677C448.333 224.177 444.833 197.177 444.833 192.677C444.833 188.177 441.333 188.677 439.833 189.677C438.333 190.677 435.333 194.677 435.333 207.677C435.333 220.677 440.833 240.177 443.502 246.177C445.638 250.977 444.392 252.51 443.502 252.677C439.619 250.339 435.889 248.066 434.333 247.177C430.833 245.177 403.333 219.677 400.333 220.177C397.333 220.677 398.333 226.177 400.333 232.677C401.933 237.877 423.666 256.51 434.333 265.177C428.833 267.843 415.633 273.177 406.833 273.177C395.833 273.177 395.333 273.677 394.333 274.677C393.333 275.677 394.333 280.677 400.833 283.177C406.033 285.177 424.333 283.343 432.833 282.177C434.033 285.777 436.666 287.677 437.833 288.177C438.333 290.677 442.333 301.177 447.833 307.677Z"
          fill="#5E5D72"/>
    <path d="M459.833 314.677C457.666 314.51 452.233 312.877 447.833 307.677C442.333 301.177 438.333 290.677 437.833 288.177C436.666 287.677 434.033 285.777 432.833 282.177C424.333 283.343 406.033 285.177 400.833 283.177C394.333 280.677 393.333 275.677 394.333 274.677C395.333 273.677 395.833 273.177 406.833 273.177C415.633 273.177 428.833 267.843 434.333 265.177C423.666 256.51 401.933 237.877 400.333 232.677C398.333 226.177 397.333 220.677 400.333 220.177C403.333 219.677 430.833 245.177 434.333 247.177C435.889 248.066 439.619 250.339 443.502 252.677M454.833 259.177C453.444 258.621 448.354 255.598 443.502 252.677M443.502 252.677C444.392 252.51 445.638 250.977 443.502 246.177C440.833 240.177 435.333 220.677 435.333 207.677C435.333 194.677 438.333 190.677 439.833 189.677C441.333 188.677 444.833 188.177 444.833 192.677C444.833 197.177 448.333 224.177 452.333 232.677C452.799 233.666 453.285 234.669 453.787 235.677M466.333 255.177C462.357 251.201 457.6 243.321 453.787 235.677M453.787 235.677C453.833 233.677 453.833 211.677 454.833 205.677C455.833 199.677 458.333 193.677 460.833 192.677C463.333 191.677 465.333 192.677 465.333 194.677C465.333 196.677 464.333 238.677 468.333 250.677C472.333 262.677 487.333 298.177 487.333 304.677C487.333 311.177 488.333 311.677 486.833 326.177C485.333 340.677 477.833 376.677 476.333 401.177C476.213 403.136 476.093 404.964 475.973 406.677M472.333 442.677C473.253 430.716 474.596 426.374 475.973 406.677M475.973 406.677C485.76 410.177 506.8 425.8 506 463C506.167 463.5 506.2 464.8 505 466C503.5 467.5 499.833 474.177 473.333 487.177C471.333 491.01 466.533 499.377 463.333 502.177C459.333 505.677 458.833 505.677 451.333 505.677C449 507.177 442.933 510.177 437.333 510.177C430.333 510.177 421.833 510.677 413.333 495.177C404.833 479.677 403.333 475.677 403.333 469.177C403.333 462.677 407.333 446.677 412.333 430.177C416.333 416.977 441 357.343 452.833 329.177C453.333 327.01 454.033 321.977 452.833 319.177C451.633 316.377 453.666 313.343 454.833 312.177"
          stroke="#404040"/>
    <path d="M434.026 385C433.626 381.8 432.329 380.333 431.73 380C429.862 384.581 428.022 389.118 426.257 393.5C425.847 396.392 425.626 401.841 428.026 400.5C430.426 399.159 432.36 393.941 433.026 391.5C436.526 390 439.526 387.5 439.026 386.5C438.626 385.7 435.526 385.167 434.026 385Z"
          fill="#F8DB90"/>
    <path d="M456.526 379C455.326 379 452.36 382.333 451.026 384C448.693 384 444.026 384.3 444.026 385.5C444.026 386.7 448.026 390 450.026 391.5C450.026 394.167 450.326 399.5 451.526 399.5C452.726 399.5 455.36 394.833 456.526 392.5C458.86 392.5 463.626 392.3 464.026 391.5C464.426 390.7 460.193 386.833 458.026 385C458.026 383 457.726 379 456.526 379Z"
          fill="#F8DB90"/>
    <path d="M475.859 402.177C476.038 399.262 476.301 396.185 476.629 393L475.5 394.5C473.342 394 468.926 393.2 468.526 394C468.126 394.8 471.36 399.333 473.026 401.5C472.86 403.167 472.726 406.8 473.526 408C473.915 408.118 474.926 407.118 475.859 402.177Z"
          fill="#F8DB90"/>
    <path d="M434.026 385C433.626 381.8 432.329 380.333 431.73 380C429.862 384.581 428.022 389.118 426.257 393.5C425.847 396.392 425.626 401.841 428.026 400.5C430.426 399.159 432.36 393.941 433.026 391.5C436.526 390 439.526 387.5 439.026 386.5C438.626 385.7 435.526 385.167 434.026 385Z"
          stroke="#404040"/>
    <path d="M456.526 379C455.326 379 452.36 382.333 451.026 384C448.693 384 444.026 384.3 444.026 385.5C444.026 386.7 448.026 390 450.026 391.5C450.026 394.167 450.326 399.5 451.526 399.5C452.726 399.5 455.36 394.833 456.526 392.5C458.86 392.5 463.626 392.3 464.026 391.5C464.426 390.7 460.193 386.833 458.026 385C458.026 383 457.726 379 456.526 379Z"
          stroke="#404040"/>
    <path d="M475.859 402.177C476.038 399.262 476.301 396.185 476.629 393L475.5 394.5C473.342 394 468.926 393.2 468.526 394C468.126 394.8 471.36 399.333 473.026 401.5C472.86 403.167 472.726 406.8 473.526 408C473.915 408.118 474.926 407.118 475.859 402.177Z"
          stroke="#404040"/>
    <path d="M277.663 710.501C277.163 710.001 273.663 687.501 275.663 683.001C277.663 678.501 282.163 682.001 282.663 680.501C283.163 679.001 290.163 622.001 307.163 602.001C307.163 601.501 306.663 597.501 303.663 590.001C303.663 588.501 301.163 581.501 307.163 581.001C305.996 569.001 303.663 544.401 303.663 542.001C303.663 539.001 307.163 538.001 308.663 539.001C309.413 539.501 341.79 557.377 374.166 575.253L379.663 578.287C402.829 563.858 450.063 533.801 453.663 529.001C455.163 528.167 458.063 527.301 457.663 530.501C457.163 534.501 457.663 552 457.663 553.5C459.329 552.334 462.963 551.1 464.163 555.5C465.663 561 469.663 566 469.663 571C469.663 576 500.663 614.5 518.663 648.5C536.663 682.5 544.163 730 544.163 735C536.163 736 518.563 738.4 512.163 740C504.163 742 484.866 749.5 457.514 751.5C457.837 757.035 457.923 761.703 457.663 765.001C399.496 765.334 280.063 765.401 267.663 763.001C267.163 748.001 266.463 717.701 267.663 716.501C268.863 715.301 274.829 712.001 277.663 710.501Z"
          fill="white"/>
    <path d="M379.663 578.287C345.56 559.458 309.455 539.529 308.663 539.001C307.163 538.001 303.663 539.001 303.663 542.001C303.663 544.401 305.996 569.001 307.163 581.001C301.163 581.501 303.663 588.501 303.663 590.001C306.663 597.501 307.163 601.501 307.163 602.001C290.163 622.001 283.163 679.001 282.663 680.501C282.163 682.001 277.663 678.501 275.663 683.001C273.663 687.501 277.163 710.001 277.663 710.501C274.829 712.001 268.863 715.301 267.663 716.501C266.463 717.701 267.163 748.001 267.663 763.001C280.063 765.401 399.496 765.334 457.663 765.001C457.923 761.703 457.837 757.035 457.514 751.5M379.663 578.287C410.106 595.096 438.955 611.029 439.663 611.501C441.163 612.501 441.163 613.001 441.663 615.001C442.163 617.001 448.163 654.501 448.663 668.001C449.076 679.158 455.978 725.148 457.514 751.5M379.663 578.287C402.829 563.858 450.063 533.801 453.663 529.001C455.163 528.167 458.063 527.301 457.663 530.501C457.163 534.501 457.663 552 457.663 553.5M457.663 553.5C459.329 552.334 462.963 551.1 464.163 555.5C465.663 561 469.663 566 469.663 571C469.663 576 500.663 614.5 518.663 648.5C536.663 682.5 544.163 730 544.163 735C536.163 736 518.563 738.4 512.163 740C504.163 742 484.866 749.5 457.514 751.5M457.663 553.5C452.996 564 442.063 587.2 435.663 596M384.663 744.5C357.496 730.001 299.063 697.401 282.663 683.001"
          stroke="#404040"/>
    <path d="M441.662 615C441.162 613 441.162 612.5 439.662 611.5C439.481 611.379 437.443 610.238 434 608.325C436 624.217 440.1 659 440.5 671C441 686 443.5 711.5 445.5 727C447.1 739.4 448.275 757.531 448.662 765.047C451.797 765.032 454.804 765.017 457.662 765C459.162 746 449.162 681.5 448.662 668C448.162 654.5 442.162 617 441.662 615Z"
          fill="#F7E293" stroke="#404040"/>
    <path d="M525.515 1307C522.315 1307 521.515 1309.67 521.515 1311C521.12 1312.6 521.351 1380.67 521.515 1414.5C520.015 1415.33 516.615 1418.1 515.015 1422.5C513.415 1426.9 520.015 1439.67 523.515 1445.5C520.015 1464 520.015 1508 521.015 1512.5C522.015 1517 525.515 1523.5 554.515 1522.5C577.715 1521.7 583.515 1516.5 583.515 1514C583.515 1508 582.015 1487 578.015 1470.5C574.815 1457.3 572.682 1429.33 572.015 1417L572.251 1415.77C575.358 1399.62 590.015 1323.42 590.015 1320.5C590.015 1317.5 571.015 1312 562.015 1309C553.015 1306 529.515 1307 525.515 1307Z"
          fill="#5D5F73"/>
    <path d="M108.015 1305.5C106.415 1305.9 106.015 1309.33 106.015 1311C105.215 1330.6 107.682 1376.83 109.015 1397.5C106.515 1399 94.5154 1409.5 95.0154 1413.5C95.3197 1415.93 98.9231 1424.7 101.951 1431.69C101.088 1437.71 101.588 1453.02 102.015 1461C100.015 1466.5 96.0154 1492 96.0154 1504.5C96.0154 1517 105.015 1521.5 128.015 1522C151.015 1522.5 159.515 1515 160.015 1512C160.515 1509 160.015 1479.5 158.015 1468.5C156.415 1459.7 155.682 1447.5 155.515 1442.5C156.849 1437 159.815 1424.9 161.015 1420.5C162.147 1416.35 157.888 1412.32 155.441 1410.76L155.515 1410.5C163.015 1384.5 171.015 1327.5 171.515 1323C172.015 1318.5 171.015 1316.5 168.015 1315.5C165.015 1314.5 149.515 1310 147.015 1309.5C144.515 1309 110.015 1305 108.015 1305.5Z"
          fill="#5D5F73"/>
    <path d="M104.515 1437.5C103.798 1435.91 102.903 1433.88 101.951 1431.69M101.951 1431.69C98.9231 1424.7 95.3197 1415.93 95.0154 1413.5C94.5154 1409.5 106.515 1399 109.015 1397.5C107.682 1376.83 105.215 1330.6 106.015 1311C106.015 1309.33 106.415 1305.9 108.015 1305.5C110.015 1305 144.515 1309 147.015 1309.5C149.515 1310 165.015 1314.5 168.015 1315.5C171.015 1316.5 172.015 1318.5 171.515 1323C171.015 1327.5 163.015 1384.5 155.515 1410.5C155.49 1410.59 155.466 1410.67 155.441 1410.76C157.888 1412.32 162.147 1416.35 161.015 1420.5C159.815 1424.9 156.849 1437 155.515 1442.5C155.682 1447.5 156.415 1459.7 158.015 1468.5C160.015 1479.5 160.515 1509 160.015 1512C159.515 1515 151.015 1522.5 128.015 1522C105.015 1521.5 96.0154 1517 96.0154 1504.5C96.0154 1492 100.015 1466.5 102.015 1461C101.588 1453.02 101.088 1437.71 101.951 1431.69ZM521.515 1311C521.515 1309.67 522.315 1307 525.515 1307C529.515 1307 553.015 1306 562.015 1309C571.015 1312 590.015 1317.5 590.015 1320.5C590.015 1323.5 574.515 1404 572.015 1417C572.682 1429.33 574.815 1457.3 578.015 1470.5C582.015 1487 583.515 1508 583.515 1514C583.515 1516.5 577.715 1521.7 554.515 1522.5C525.515 1523.5 522.015 1517 521.015 1512.5C520.015 1508 520.015 1464 523.515 1445.5C520.015 1439.67 513.415 1426.9 515.015 1422.5C516.615 1418.1 520.015 1415.33 521.515 1414.5C521.351 1380.67 521.12 1312.6 521.515 1311Z"
          stroke="#404040"/>
    <path d="M418 607C416.8 607.4 415.5 615.833 415 620C411.333 622 404 626.3 404 627.5C404 628.7 412 630 416 630.5C417.333 634.333 420.3 642 421.5 642C422.7 642 423.667 633.333 424 629C427.167 627.833 433.4 625.3 433 624.5C432.6 623.7 425.833 620.833 422.5 619.5C421.5 615.167 419.2 606.6 418 607Z"
          fill="#676271" stroke="black"/>
    <path d="M498.477 467.103C497.426 468.482 495.716 468.771 494.68 467.981C493.643 467.191 493.468 465.466 494.519 464.087C495.57 462.708 497.28 462.419 498.316 463.209C499.352 463.998 499.528 465.724 498.477 467.103Z"
          fill="#F2D58A" stroke="#463C4D"/>
    <path d="M488.477 475.103C487.426 476.482 485.716 476.771 484.68 475.981C483.643 475.191 483.468 473.466 484.519 472.087C485.57 470.708 487.28 470.419 488.316 471.209C489.352 471.998 489.528 473.724 488.477 475.103Z"
          fill="#F2D58A" stroke="#463C4D"/>
    <path d="M385.5 290.5C383.9 290.1 383.167 295 383 297.5C381 298.166 377 299.7 377 300.5C377 301.3 381.333 302.166 383.5 302.5C384 304.833 385.2 309.4 386 309C386.8 308.6 387.667 304.166 388 302C390.167 301.666 394.4 300.8 394 300C393.6 299.2 389.833 298 388 297.5C387.833 295.333 387.1 290.9 385.5 290.5Z"
          fill="#5A515D" stroke="black"/>
    <defs>
        <linearGradient id="paint0_linear_303_2077" x1="363" y1="254.5" x2="395.5" y2="254.5"
                        gradientUnits="userSpaceOnUse">
            <stop stop-color="#7C7C7C"/>
            <stop offset="0.5" stop-color="#FDF4E2"/>
            <stop offset="1" stop-color="#7C7C7C"/>
        </linearGradient>
        <linearGradient id="paint1_linear_303_2077" x1="325.5" y1="199" x2="325.5" y2="225"
                        gradientUnits="userSpaceOnUse">
            <stop/>
            <stop offset="1" stop-color="#FDF4E2"/>
        </linearGradient>
        <linearGradient id="paint2_linear_303_2077" x1="432.5" y1="199" x2="432.5" y2="225"
                        gradientUnits="userSpaceOnUse">
            <stop offset="0.28" stop-color="#3F393F"/>
            <stop offset="1" stop-color="#FDF4E2"/>
        </linearGradient>
        <linearGradient id="paint3_linear_303_2077" x1="344" y1="191.75" x2="413.5" y2="191.75"
                        gradientUnits="userSpaceOnUse">
            <stop stop-color="#ECE2CF"/>
            <stop offset="0.5" stop-color="#AEA48E"/>
            <stop offset="1" stop-color="#ECE2CF"/>
        </linearGradient>
    </defs>
</svg>
