<svg width="758" height="1525" viewBox="0 0 758 1525" fill="none" xmlns="http://www.w3.org/2000/svg">
    <path d="M359.21 298.62V281.17L406.229 276.808V298.62H359.21Z" fill="#FFE0CE" stroke="#454242" stroke-width="1.5"/>
    <path d="M334.489 265.659C332.938 264.108 325.764 246.593 322.371 238.029L315.585 210.4L307.345 128.967H460.517L455.67 210.4C444.037 244.331 433.858 262.266 429.01 268.082C425.133 272.736 396.696 287.471 382.962 294.257C334.489 271.96 336.428 267.598 334.489 265.659Z"
          fill="#FDF4E0" stroke="black"/>
    <path d="M407.878 229.323C404.533 223.648 405.091 215.812 405.788 212.603L412.582 208.043L421.99 206.522C424.777 207.705 430.457 210.069 430.875 210.069C432.965 220.71 428.784 227.297 425.126 230.337C421.467 233.377 412.059 236.417 407.878 229.323Z"
          fill="#EF6974"/>
    <path d="M427.071 206.522C425.617 206.037 414.469 203.614 405.744 206.037" stroke="url(#paint0_linear_303_2029)"/>
    <path d="M441.128 212.824C440.644 216.379 437.929 225.524 430.949 233.667" stroke="url(#paint1_linear_303_2029)"/>
    <mask id="mask0_303_2029" style="mask-type:alpha" maskUnits="userSpaceOnUse" x="405" y="206" width="27" height="28">
        <path d="M407.878 229.323C404.533 223.648 405.091 215.812 405.788 212.603L412.582 208.043L421.99 206.522C424.777 207.705 430.457 210.069 430.875 210.069C432.965 220.71 428.784 227.297 425.126 230.337C421.467 233.377 412.059 236.417 407.878 229.323Z"
              fill="#C13D65"/>
    </mask>
    <g mask="url(#mask0_303_2029)">
        <path d="M414.469 215.248C409.428 216.411 405.905 221.549 404.774 223.973L403.32 211.37L414.469 204.584L429.98 207.008L432.888 211.37L430.949 222.519C426.587 217.672 420.77 213.793 414.469 215.248Z"
              fill="#C13D65"/>
    </g>
    <ellipse cx="417.568" cy="214.854" rx="4.14733" ry="7.13395" transform="rotate(3.31656 417.568 214.854)"
             fill="white"/>
    <path d="M417.862 207.491C413.208 207.879 405.582 212.823 402.351 215.247C410.591 207.491 415.438 204.583 423.194 205.553C429.398 206.328 438.543 210.885 442.583 212.823C436.281 210.885 422.515 207.104 417.862 207.491Z"
          fill="black" stroke="black"/>
    <path d="M345.153 248.694C335.459 248.694 330.127 243.846 328.673 241.423L323.341 233.667L320.917 217.671L325.28 195.859C328.35 194.728 336.816 192.369 346.123 191.981C357.756 191.496 366.481 195.374 368.42 196.828C370.359 198.282 373.752 204.584 373.267 221.549C372.783 238.515 357.271 248.694 345.153 248.694Z"
          fill="#636073"/>
    <path d="M366.481 260.327C367.289 262.104 370.262 265.659 375.691 265.659C381.12 265.659 383.123 264.043 383.447 263.235C384.093 264.043 386.549 265.659 391.202 265.659C395.855 265.659 398.958 262.104 399.927 260.327M383.447 244.816V247.24M328.673 241.423C330.127 243.846 335.459 248.694 345.153 248.694C357.271 248.694 372.783 238.515 373.267 221.549C373.752 204.584 370.359 198.282 368.42 196.828C366.481 195.374 357.756 191.496 346.123 191.981C336.816 192.369 328.35 194.728 325.28 195.859L320.917 217.671L323.341 233.667L328.673 241.423Z"
          stroke="#343434"/>
    <path d="M365.512 203.129C367.063 204.293 360.664 215.57 357.271 221.064C360.664 225.911 365.512 236.09 363.088 236.575C361.149 236.963 351.293 232.213 346.608 229.789C341.76 233.021 331.872 238.999 331.096 237.06C330.321 235.121 334.974 223.972 337.398 218.64C334.489 213.47 329.351 202.838 332.066 201.675C334.78 200.512 343.214 206.684 347.092 209.915C352.586 207.169 363.961 201.966 365.512 203.129Z"
          fill="#F26F77"/>
    <path d="M408.652 199.736C409.622 196.666 412.336 190.623 415.438 191.011C419.316 191.496 431.434 198.767 432.888 199.736"
          stroke="url(#paint2_linear_303_2029)"/>
    <path fill-rule="evenodd" clip-rule="evenodd"
          d="M478.005 289.212C478.005 274.06 476.012 222.422 475.015 198.496C454.08 158.289 412.212 77.2762 412.212 74.8839C429.158 58.4354 438.629 54.4479 464.547 56.9401C490.466 59.4323 553.269 149.65 583.176 193.014C607.101 227.705 636.675 254.654 648.471 263.792C610.091 246.845 574.917 222.422 574.287 220.926C575.592 223.986 576.585 226.523 577.194 228.403C578.847 233.497 583.769 247.45 590.186 265.642C607.003 313.315 634.088 390.096 639.499 412.825C645.48 437.946 649.966 471.142 651.462 484.6C658.44 506.033 666.415 546.905 663.923 619.178C663.534 630.44 663.037 640.842 662.361 650.614C692.52 674.279 733.704 694.405 749.156 700.424C741.254 699.77 733.217 699.21 725.133 698.646C702.404 697.063 679.302 695.453 657.784 691.668C652.401 724.301 642.696 752.632 624.546 790.142C600.621 839.587 551.774 876.206 530.341 888.335C575.4 854.441 595.304 798.071 599.624 774.123C574.575 789.189 546.288 798.562 519.874 802.105C488.563 806.305 444.278 798.45 426.168 795.127C441.287 794.296 488.871 772.398 512.398 741.295C529.167 719.126 551.933 685.773 572.471 644.749C542.587 599.833 529.41 558.11 520.977 531.407C520.244 529.085 519.547 526.877 518.877 524.791C510.404 498.373 490.466 407.84 486.479 384.414C482.491 360.987 478.005 308.153 478.005 289.212ZM574.204 554.697C563.903 533.264 540.808 482.025 530.84 448.53C518.379 406.661 506.915 354.823 504.921 341.366C504.755 370.109 505.22 434.673 510.404 453.016C516.883 475.944 547.786 529.277 574.204 554.697Z"
          fill="#D9D4C8"/>
    <path d="M475.015 198.496L475.514 198.476L475.51 198.364L475.458 198.266L475.015 198.496ZM412.212 74.8839L411.863 74.5251L411.712 74.6724V74.8839H412.212ZM464.547 56.9401L464.5 57.4378L464.5 57.4378L464.547 56.9401ZM583.176 193.014L583.587 192.73L583.587 192.73L583.176 193.014ZM648.471 263.792L648.269 264.249L648.777 263.397L648.471 263.792ZM574.287 220.926L574.747 220.73L573.826 221.12L574.287 220.926ZM577.194 228.403L576.719 228.557L576.719 228.557L577.194 228.403ZM590.186 265.642L590.658 265.476L590.658 265.476L590.186 265.642ZM639.499 412.825L639.013 412.941L639.013 412.941L639.499 412.825ZM651.462 484.6L650.965 484.655L650.97 484.706L650.986 484.755L651.462 484.6ZM663.923 619.178L663.423 619.161L663.423 619.161L663.923 619.178ZM662.361 650.614L661.862 650.579L661.844 650.844L662.052 651.007L662.361 650.614ZM749.156 700.424L749.114 700.922L749.337 699.958L749.156 700.424ZM725.133 698.646L725.167 698.148L725.167 698.148L725.133 698.646ZM657.784 691.668L657.87 691.175L657.373 691.088L657.291 691.586L657.784 691.668ZM624.546 790.142L624.996 790.36L624.996 790.36L624.546 790.142ZM530.341 888.335L530.041 887.935L530.588 888.77L530.341 888.335ZM599.624 774.123L600.116 774.212L600.312 773.126L599.366 773.694L599.624 774.123ZM519.874 802.105L519.941 802.6L519.941 802.6L519.874 802.105ZM426.168 795.127L426.14 794.628L426.078 795.619L426.168 795.127ZM512.398 741.295L511.999 740.994L511.999 740.994L512.398 741.295ZM572.471 644.749L572.918 644.972L573.048 644.713L572.887 644.472L572.471 644.749ZM520.977 531.407L520.5 531.557L520.5 531.557L520.977 531.407ZM518.877 524.791L519.353 524.638L519.353 524.638L518.877 524.791ZM486.479 384.414L485.986 384.498L485.986 384.498L486.479 384.414ZM530.84 448.53L531.319 448.387L531.319 448.387L530.84 448.53ZM574.204 554.697L573.857 555.057L574.654 554.48L574.204 554.697ZM504.921 341.366L505.415 341.292L504.421 341.363L504.921 341.366ZM510.404 453.016L510.885 452.88L510.885 452.88L510.404 453.016ZM572.471 644.749L572.024 644.525L571.894 644.784L572.054 645.026L572.471 644.749ZM573.705 646.592L573.291 646.872L573.291 646.872L573.705 646.592ZM657.784 691.668L657.697 692.16L658.195 692.248L658.277 691.749L657.784 691.668ZM662.361 650.614L662.86 650.648L662.878 650.384L662.67 650.221L662.361 650.614ZM611.587 540.425L612.072 540.545L612.072 540.545L611.587 540.425ZM474.515 198.517C475.512 222.448 477.505 274.073 477.505 289.212H478.505C478.505 274.047 476.511 222.395 475.514 198.476L474.515 198.517ZM411.712 74.8839C411.712 74.991 411.737 75.1011 411.759 75.1827C411.784 75.2757 411.819 75.3834 411.861 75.5023C411.946 75.7407 412.069 76.049 412.227 76.42C412.542 77.1633 413.005 78.1826 413.599 79.4458C414.787 81.9735 416.506 85.4952 418.633 89.7759C422.886 98.3382 428.775 109.948 435.318 122.737C448.402 148.317 464.104 178.623 474.571 198.727L475.458 198.266C464.991 178.162 449.291 147.859 436.208 122.282C429.666 109.493 423.779 97.8879 419.528 89.331C417.403 85.0521 415.687 81.5381 414.504 79.0204C413.912 77.7609 413.455 76.7551 413.147 76.0293C412.993 75.6657 412.878 75.3784 412.803 75.1674C412.766 75.0616 412.74 74.9812 412.725 74.9236C412.706 74.8546 412.712 74.8515 412.712 74.8839H411.712ZM464.595 56.4424C451.613 55.1941 442.678 55.5597 434.848 58.338C427.017 61.1166 420.349 66.2885 411.863 74.5251L412.56 75.2427C421.02 67.0308 427.561 61.9847 435.182 59.2805C442.804 56.576 451.563 56.1939 464.5 57.4378L464.595 56.4424ZM583.587 192.73C568.635 171.049 545.448 137.639 522.756 109.337C511.411 95.1872 500.18 82.301 490.156 72.7922C485.144 68.038 480.424 64.1183 476.134 61.3058C471.853 58.4993 467.955 56.7654 464.595 56.4424L464.5 57.4378C467.62 57.7378 471.354 59.3684 475.586 62.1421C479.808 64.9098 484.48 68.7859 489.468 73.5177C499.444 82.9807 510.642 95.8263 521.976 109.963C544.642 138.233 567.81 171.614 582.764 193.298L583.587 192.73ZM648.777 263.397C637.014 254.285 607.478 227.372 583.587 192.73L582.764 193.298C606.723 228.038 636.335 255.023 648.165 264.187L648.777 263.397ZM573.826 221.12C573.886 221.261 574 221.389 574.084 221.477C574.185 221.583 574.316 221.706 574.472 221.843C574.786 222.119 575.224 222.474 575.777 222.899C576.883 223.75 578.466 224.898 580.462 226.282C584.456 229.053 590.119 232.781 596.961 236.991C610.643 245.409 629.052 255.764 648.269 264.249L648.673 263.334C629.51 254.873 611.142 244.542 597.485 236.139C590.657 231.937 585.01 228.22 581.032 225.461C579.043 224.081 577.475 222.943 576.386 222.106C575.842 221.687 575.422 221.347 575.133 221.092C574.987 220.964 574.88 220.863 574.809 220.788C574.72 220.695 574.728 220.685 574.748 220.732L573.826 221.12ZM577.67 228.249C577.054 226.348 576.054 223.794 574.747 220.73L573.827 221.122C575.13 224.177 576.116 226.699 576.719 228.557L577.67 228.249ZM590.658 265.476C584.238 247.279 579.32 233.334 577.67 228.249L576.719 228.557C578.373 233.659 583.299 247.621 589.714 265.808L590.658 265.476ZM639.986 412.709C634.566 389.947 607.467 313.128 590.658 265.476L589.714 265.808C606.539 313.502 633.609 390.246 639.013 412.941L639.986 412.709ZM651.959 484.545C650.463 471.079 645.974 437.86 639.986 412.709L639.013 412.941C644.987 438.033 649.47 471.205 650.965 484.655L651.959 484.545ZM664.422 619.195C666.916 546.881 658.938 505.948 651.937 484.445L650.986 484.755C657.942 506.118 665.914 546.928 663.423 619.161L664.422 619.195ZM662.86 650.648C663.536 640.87 664.034 630.461 664.422 619.195L663.423 619.161C663.035 630.419 662.538 640.815 661.862 650.579L662.86 650.648ZM749.337 699.958C733.919 693.953 692.781 673.848 662.67 650.221L662.052 651.007C692.259 674.71 733.489 694.858 748.974 700.889L749.337 699.958ZM725.098 699.145C733.183 699.709 741.216 700.269 749.114 700.922L749.197 699.925C741.291 699.271 733.251 698.711 725.167 698.148L725.098 699.145ZM657.697 692.16C679.246 695.95 702.375 697.562 725.098 699.145L725.167 698.148C702.434 696.563 679.359 694.955 657.87 691.175L657.697 692.16ZM624.996 790.36C643.161 752.819 652.885 724.442 658.277 691.749L657.291 691.586C651.918 724.16 642.231 752.445 624.096 789.925L624.996 790.36ZM530.588 888.77C552.068 876.614 601.01 839.932 624.996 790.36L624.096 789.925C600.232 839.243 551.481 875.798 530.095 887.9L530.588 888.77ZM599.132 774.034C594.825 797.912 574.962 854.145 530.041 887.935L530.642 888.734C575.838 854.737 595.784 798.23 600.116 774.212L599.132 774.034ZM519.941 802.6C546.419 799.048 574.772 789.655 599.882 774.551L599.366 773.694C574.379 788.724 546.157 798.075 519.808 801.609L519.941 802.6ZM426.078 795.619C444.17 798.938 488.536 806.813 519.941 802.6L519.808 801.609C488.589 805.797 444.386 797.961 426.258 794.635L426.078 795.619ZM511.999 740.994C500.292 756.47 482.578 769.68 465.884 779.128C457.54 783.85 449.462 787.626 442.533 790.272C435.591 792.923 429.841 794.424 426.14 794.628L426.195 795.626C430.054 795.414 435.922 793.867 442.89 791.206C449.87 788.541 457.993 784.742 466.376 779.998C483.135 770.514 500.977 757.223 512.796 741.597L511.999 740.994ZM572.024 644.525C551.503 685.515 528.755 718.842 511.999 740.994L512.796 741.597C529.579 719.41 552.363 686.031 572.918 644.972L572.024 644.525ZM520.5 531.557C528.935 558.266 542.129 600.047 572.054 645.026L572.887 644.472C543.045 599.618 529.885 557.953 521.454 531.256L520.5 531.557ZM518.401 524.943C519.07 527.029 519.767 529.235 520.5 531.557L521.454 531.256C520.721 528.935 520.023 526.726 519.353 524.638L518.401 524.943ZM485.986 384.498C489.975 407.935 509.917 498.494 518.401 524.943L519.353 524.638C510.89 498.253 490.957 407.745 486.972 384.33L485.986 384.498ZM477.505 289.212C477.505 308.183 481.994 361.045 485.986 384.498L486.972 384.33C482.989 360.929 478.505 308.123 478.505 289.212H477.505ZM530.36 448.672C540.341 482.209 563.451 533.479 573.753 554.914L574.654 554.48C564.354 533.049 541.275 481.841 531.319 448.387L530.36 448.672ZM504.426 341.439C506.425 354.928 517.895 406.79 530.36 448.672L531.319 448.387C518.862 406.532 507.405 354.719 505.415 341.292L504.426 341.439ZM510.885 452.88C509.603 448.345 508.605 440.913 507.835 431.832C507.066 422.762 506.527 412.083 506.156 401.074C505.412 379.056 505.338 355.737 505.421 341.368L504.421 341.363C504.338 355.738 504.412 379.072 505.156 401.108C505.528 412.125 506.067 422.823 506.838 431.916C507.608 440.998 508.612 448.515 509.922 453.152L510.885 452.88ZM574.55 554.337C561.386 541.669 547.082 522.022 535.254 502.661C523.422 483.294 514.105 464.276 510.885 452.88L509.922 453.152C513.181 464.683 522.556 483.796 534.4 503.182C546.248 522.575 560.604 542.304 573.857 555.057L574.55 554.337ZM572.054 645.026C572.463 645.64 572.876 646.256 573.291 646.872L574.12 646.313C573.706 645.698 573.295 645.085 572.887 644.472L572.054 645.026ZM573.291 646.872C591.599 674.024 622.614 685.989 657.697 692.16L657.87 691.175C622.868 685.019 592.196 673.12 574.12 646.313L573.291 646.872ZM662.67 650.221C662.023 649.713 661.382 649.205 660.747 648.694L660.121 649.474C660.759 649.987 661.403 650.498 662.052 651.007L662.67 650.221ZM572.918 644.972C588.409 614.028 602.636 578.718 612.072 540.545L611.101 540.305C601.687 578.391 587.489 613.632 572.024 644.525L572.918 644.972ZM612.072 540.545C634.032 451.709 619.557 374.358 608.581 332.45L607.614 332.703C618.569 374.532 633.004 451.697 611.101 540.305L612.072 540.545ZM599.882 774.551C613.627 766.284 626.405 756.303 637.371 744.628L636.643 743.944C625.746 755.543 613.043 765.468 599.366 773.694L599.882 774.551ZM658.277 691.749C660.385 678.971 661.83 665.539 662.86 650.648L661.862 650.579C660.834 665.447 659.392 678.847 657.291 691.586L658.277 691.749ZM574.747 220.73C568.99 207.231 557.179 183.606 545.414 161.462C533.654 139.329 521.911 118.619 516.289 110.974L515.484 111.566C521.053 119.141 532.762 139.78 544.531 161.931C556.294 184.071 568.088 207.665 573.827 221.122L574.747 220.73Z"
          fill="#6C513D"/>
    <path fill-rule="evenodd" clip-rule="evenodd"
          d="M277.135 289.212C277.135 274.06 279.128 222.421 280.125 198.496C301.06 158.289 342.928 77.2761 342.928 74.8837C325.982 58.4353 316.511 54.4478 290.592 56.94C264.674 59.4322 201.87 149.649 171.964 193.014C148.039 227.705 118.465 254.654 106.669 263.792C145.049 246.845 180.223 222.421 180.853 220.926C179.548 223.985 178.555 226.523 177.945 228.403C176.293 233.496 171.371 247.45 164.954 265.642C148.137 313.315 121.052 390.096 115.641 412.825C109.659 437.946 105.174 471.142 103.678 484.6C96.7001 506.033 88.7251 546.905 91.2173 619.178C91.6056 630.44 92.1029 640.842 92.7788 650.614C62.6204 674.279 21.4364 694.405 5.98438 700.423C11.5977 699.959 17.254 699.523 22.928 699.086C48.0579 697.151 73.5363 695.188 97.1812 690.596C102.528 723.683 112.245 752.222 130.594 790.142C154.519 839.587 203.366 876.206 224.799 888.335C179.74 854.441 159.836 798.071 155.516 774.123C180.564 789.189 208.852 798.561 235.266 802.105C266.577 806.305 310.862 798.45 328.972 795.127C313.853 794.296 266.269 772.398 242.742 741.295C225.995 719.154 203.266 685.859 182.749 644.909C216.311 601.595 230.492 556.83 239.038 529.855C239.634 527.973 240.203 526.177 240.749 524.475C249.222 498.058 264.674 407.84 268.661 384.414C272.649 360.987 277.135 308.153 277.135 289.212ZM180.438 554.697C190.739 533.264 213.833 482.025 223.802 448.53C236.263 406.661 247.727 354.823 249.721 341.366C249.887 370.109 248.923 432.181 243.739 450.523C237.26 473.452 206.855 529.277 180.438 554.697Z"
          fill="#D9D4C8"/>
    <path d="M280.125 198.496L279.682 198.265L279.63 198.364L279.626 198.476L280.125 198.496ZM342.928 74.8837H343.428V74.6723L343.277 74.525L342.928 74.8837ZM290.592 56.94L290.64 57.4377L290.64 57.4377L290.592 56.94ZM171.964 193.014L171.553 192.73L171.553 192.73L171.964 193.014ZM106.669 263.792L106.363 263.396L106.871 264.249L106.669 263.792ZM180.853 220.926L181.314 221.12L180.393 220.73L180.853 220.926ZM177.945 228.403L178.421 228.557L178.421 228.557L177.945 228.403ZM164.954 265.642L165.426 265.808L164.954 265.642ZM115.641 412.825L116.127 412.94L116.127 412.94L115.641 412.825ZM103.678 484.6L104.154 484.755L104.17 484.706L104.175 484.655L103.678 484.6ZM91.2173 619.178L91.717 619.161L91.717 619.161L91.2173 619.178ZM92.7788 650.614L93.0875 651.007L93.2959 650.844L93.2776 650.579L92.7788 650.614ZM5.98438 700.423L5.80292 699.957L6.02559 700.922L5.98438 700.423ZM22.928 699.086L22.8896 698.588L22.8896 698.588L22.928 699.086ZM97.1812 690.596L97.6748 690.517L97.5925 690.007L97.0859 690.105L97.1812 690.596ZM130.594 790.142L130.144 790.36L130.144 790.36L130.594 790.142ZM224.799 888.335L224.552 888.77L225.099 887.935L224.799 888.335ZM155.516 774.123L155.773 773.694L154.828 773.125L155.024 774.211L155.516 774.123ZM235.266 802.105L235.199 802.6L235.199 802.6L235.266 802.105ZM328.972 795.127L329.062 795.618L329 794.627L328.972 795.127ZM242.742 741.295L243.141 740.994L243.141 740.994L242.742 741.295ZM182.749 644.909L182.354 644.602L182.161 644.851L182.302 645.132L182.749 644.909ZM239.038 529.855L238.561 529.704L238.561 529.704L239.038 529.855ZM240.749 524.475L240.273 524.322L240.273 524.322L240.749 524.475ZM268.661 384.414L269.154 384.498L269.154 384.498L268.661 384.414ZM223.802 448.53L223.323 448.387L223.323 448.387L223.802 448.53ZM180.438 554.697L179.987 554.48L180.784 555.057L180.438 554.697ZM249.721 341.366L250.221 341.363L249.226 341.292L249.721 341.366ZM243.739 450.523L244.221 450.659L244.221 450.659L243.739 450.523ZM182.749 644.909L183.145 645.215L183.337 644.966L183.196 644.685L182.749 644.909ZM181.435 646.592L181.042 646.283L181.042 646.283L181.435 646.592ZM97.1812 690.596L96.6876 690.676L96.77 691.186L97.2766 691.087L97.1812 690.596ZM92.7788 650.614L92.4702 650.22L92.2617 650.384L92.28 650.648L92.7788 650.614ZM143.553 540.425L143.068 540.545L143.068 540.545L143.553 540.425ZM279.626 198.476C278.629 222.395 276.635 274.046 276.635 289.212H277.635C277.635 274.073 279.628 222.448 280.625 198.517L279.626 198.476ZM342.428 74.8837C342.428 74.8514 342.434 74.8544 342.415 74.9235C342.4 74.9811 342.374 75.0615 342.337 75.1673C342.262 75.3782 342.147 75.6656 341.993 76.0291C341.685 76.755 341.228 77.7608 340.636 79.0203C339.453 81.5379 337.737 85.0519 335.612 89.3309C331.361 97.8878 325.474 109.493 318.932 122.282C305.849 147.858 290.149 178.162 279.682 198.265L280.569 198.727C291.036 178.623 306.738 148.317 319.822 122.737C326.365 109.948 332.253 98.3381 336.507 89.7758C338.634 85.4951 340.353 81.9733 341.541 79.4456C342.135 78.1825 342.598 77.1632 342.913 76.4198C343.071 76.0488 343.194 75.7405 343.279 75.5022C343.321 75.3833 343.356 75.2756 343.381 75.1826C343.403 75.101 343.428 74.9908 343.428 74.8837H342.428ZM290.64 57.4377C303.577 56.1938 312.336 56.5759 319.958 59.2803C327.579 61.9845 334.12 67.0307 342.58 75.2425L343.277 74.525C334.79 66.2883 328.123 61.1165 320.292 58.3379C312.462 55.5595 303.527 55.194 290.545 56.4423L290.64 57.4377ZM172.376 193.297C187.33 171.614 210.498 138.233 233.164 109.963C244.498 95.8262 255.696 82.9805 265.672 73.5175C270.66 68.7858 275.332 64.9097 279.554 62.142C283.786 59.3683 287.52 57.7377 290.64 57.4377L290.545 56.4423C287.185 56.7653 283.287 58.4992 279.006 61.3057C274.716 64.1181 269.996 68.0379 264.984 72.792C254.96 82.3008 243.728 95.187 232.384 109.337C209.692 137.639 186.505 171.049 171.553 192.73L172.376 193.297ZM106.975 264.187C118.805 255.023 148.417 228.038 172.376 193.297L171.553 192.73C147.662 227.372 118.125 254.284 106.363 263.396L106.975 264.187ZM180.392 220.732C180.412 220.685 180.42 220.695 180.331 220.788C180.259 220.863 180.153 220.964 180.007 221.092C179.718 221.347 179.298 221.687 178.754 222.106C177.665 222.943 176.097 224.081 174.108 225.461C170.13 228.22 164.483 231.937 157.655 236.139C143.998 244.542 125.63 254.873 106.467 263.334L106.871 264.249C126.088 255.764 144.497 245.409 158.179 236.99C165.021 232.781 170.684 229.053 174.678 226.282C176.674 224.897 178.257 223.749 179.363 222.898C179.916 222.474 180.354 222.119 180.668 221.843C180.824 221.706 180.955 221.583 181.056 221.477C181.14 221.389 181.254 221.261 181.314 221.12L180.392 220.732ZM178.421 228.557C179.024 226.698 180.01 224.177 181.313 221.122L180.393 220.73C179.086 223.794 178.086 226.347 177.47 228.248L178.421 228.557ZM165.426 265.808C171.841 247.621 176.766 233.659 178.421 228.557L177.47 228.248C175.82 233.334 170.902 247.279 164.482 265.476L165.426 265.808ZM116.127 412.94C121.531 390.246 148.601 313.502 165.426 265.808L164.482 265.476C147.673 313.128 120.574 389.947 115.154 412.709L116.127 412.94ZM104.175 484.655C105.67 471.205 110.153 438.032 116.127 412.94L115.154 412.709C109.166 437.86 104.677 471.079 103.181 484.545L104.175 484.655ZM91.717 619.161C89.2262 546.928 97.1983 506.117 104.154 484.755L103.203 484.445C96.2019 505.948 88.224 546.881 90.7176 619.195L91.717 619.161ZM93.2776 650.579C92.6022 640.815 92.1052 630.419 91.717 619.161L90.7176 619.195C91.106 630.461 91.6036 640.87 92.28 650.648L93.2776 650.579ZM6.16583 700.889C21.6514 694.858 62.8814 674.71 93.0875 651.007L92.4702 650.22C62.3594 673.848 21.2214 693.952 5.80292 699.957L6.16583 700.889ZM22.8896 698.588C17.2158 699.025 11.5582 699.461 5.94316 699.925L6.02559 700.922C11.6373 700.458 17.2921 700.022 22.9664 699.585L22.8896 698.588ZM97.0859 690.105C73.4743 694.691 48.0255 696.652 22.8896 698.588L22.9664 699.585C48.0903 697.65 73.5983 695.686 97.2766 691.087L97.0859 690.105ZM131.044 789.924C112.711 752.035 103.011 723.543 97.6748 690.517L96.6876 690.676C102.044 723.823 111.78 752.409 130.144 790.36L131.044 789.924ZM225.045 887.899C203.659 875.797 154.908 839.243 131.044 789.924L130.144 790.36C154.13 839.932 203.072 876.614 224.552 888.77L225.045 887.899ZM155.024 774.211C159.356 798.23 179.302 854.737 224.498 888.734L225.099 887.935C180.178 854.144 160.315 797.912 156.008 774.034L155.024 774.211ZM235.332 801.609C208.983 798.075 180.761 788.724 155.773 773.694L155.258 774.551C180.368 789.654 208.721 799.048 235.199 802.6L235.332 801.609ZM328.882 794.635C310.754 797.961 266.551 805.797 235.332 801.609L235.199 802.6C266.604 806.813 310.97 798.938 329.062 795.618L328.882 794.635ZM242.344 741.597C254.163 757.223 272.005 770.514 288.764 779.998C297.147 784.742 305.27 788.54 312.25 791.206C319.218 793.867 325.086 795.414 328.945 795.626L329 794.627C325.299 794.424 319.549 792.923 312.607 790.272C305.678 787.626 297.6 783.85 289.256 779.128C272.562 769.68 254.848 756.47 243.141 740.994L242.344 741.597ZM182.302 645.132C202.836 686.117 225.583 719.438 242.344 741.597L243.141 740.994C226.407 718.871 203.696 685.602 183.196 644.685L182.302 645.132ZM238.561 529.704C230.017 556.674 215.857 601.364 182.354 644.602L183.145 645.215C216.765 601.825 230.967 556.985 239.514 530.006L238.561 529.704ZM240.273 524.322C239.726 526.025 239.157 527.822 238.561 529.704L239.514 530.006C240.111 528.123 240.679 526.329 241.225 524.628L240.273 524.322ZM268.168 384.33C266.175 396.043 261.315 424.45 255.896 453.23C250.473 482.025 244.498 511.149 240.273 524.322L241.225 524.628C245.473 511.383 251.46 482.19 256.879 453.415C262.3 424.626 267.16 396.211 269.154 384.498L268.168 384.33ZM276.635 289.212C276.635 308.123 272.151 360.929 268.168 384.33L269.154 384.498C273.146 361.045 277.635 308.183 277.635 289.212H276.635ZM223.323 448.387C213.366 481.841 190.287 533.049 179.987 554.48L180.888 554.914C191.19 533.479 214.3 482.209 224.281 448.672L223.323 448.387ZM249.226 341.292C247.237 354.719 235.779 406.532 223.323 448.387L224.281 448.672C236.746 406.79 248.217 354.928 250.215 341.439L249.226 341.292ZM244.221 450.659C245.53 446.026 246.565 438.667 247.382 429.817C248.2 420.958 248.802 410.571 249.236 399.865C250.104 378.452 250.304 355.74 250.221 341.363L249.221 341.368C249.304 355.734 249.104 378.43 248.237 399.825C247.803 410.522 247.202 420.889 246.386 429.725C245.57 438.571 244.541 445.85 243.258 450.388L244.221 450.659ZM180.784 555.057C194.042 542.3 208.275 521.942 219.997 501.928C231.717 481.917 240.963 462.185 244.221 450.659L243.258 450.388C240.036 461.79 230.84 481.435 219.134 501.423C207.429 521.409 193.251 541.674 180.091 554.337L180.784 555.057ZM182.354 644.602C181.92 645.163 181.482 645.723 181.042 646.283L181.827 646.901C182.27 646.339 182.709 645.777 183.145 645.215L182.354 644.602ZM181.042 646.283C161.223 671.458 131.106 683.498 97.0859 690.105L97.2766 691.087C131.387 684.463 161.789 672.356 181.827 646.901L181.042 646.283ZM93.0875 651.007C93.7366 650.498 94.3807 649.987 95.0193 649.474L94.3934 648.694C93.7577 649.205 93.1165 649.713 92.4702 650.22L93.0875 651.007ZM183.196 644.685C167.7 613.754 153.47 578.457 144.039 540.305L143.068 540.545C152.52 578.783 166.78 614.15 182.302 645.132L183.196 644.685ZM144.039 540.305C122.136 451.697 136.571 374.532 147.526 332.703L146.559 332.449C135.583 374.358 121.108 451.709 143.068 540.545L144.039 540.305ZM155.773 773.694C142.097 765.468 129.394 755.543 118.497 743.944L117.768 744.628C128.735 756.303 141.513 766.283 155.258 774.551L155.773 773.694ZM97.6748 690.517C95.668 678.097 94.2774 665.032 93.2776 650.579L92.28 650.648C93.2813 665.123 94.6748 678.219 96.6876 690.676L97.6748 690.517ZM181.313 221.122C187.052 207.665 198.846 184.071 210.609 161.931C222.378 139.78 234.087 119.14 239.656 111.566L238.851 110.974C233.229 118.619 221.486 139.329 209.726 161.462C197.961 183.606 186.15 207.231 180.393 220.73L181.313 221.122Z"
          fill="#6C513D"/>
    <path d="M756.901 530.317C755.903 530.317 642.581 499.093 570.194 434.662C497.808 370.231 465.858 280.027 456.373 231.952L462.613 215.844L468.853 199.736C478.838 221.048 504.098 271.701 525.265 303.817C535.208 318.905 547.197 336.373 559.243 353.38C579.249 381.624 599.413 408.597 610.631 421.28C628.602 441.601 684.016 492.65 756.901 530.317Z"
          fill="#D9D4C8"/>
    <path d="M559.243 353.38C547.197 336.373 535.208 318.905 525.265 303.817C504.098 271.701 478.838 221.048 468.853 199.736L462.613 215.844M559.243 353.38C579.249 381.624 599.413 408.597 610.631 421.28C628.602 441.601 684.016 492.65 756.901 530.317C755.903 530.317 642.581 499.093 570.194 434.662C497.808 370.231 465.858 280.027 456.373 231.952L462.613 215.844M559.243 353.38C558.541 352.388 485.827 260.698 462.613 215.844"
          stroke="#6C513D"/>
    <path d="M1.0001 529.149C1.99685 529.166 115.67 498.338 189.056 432.047C262.441 365.756 295.907 271.796 306.213 221.594L300.264 204.617L294.315 187.641C283.976 209.799 257.877 262.44 236.187 295.731C225.997 311.371 213.725 329.47 201.403 347.084C180.94 376.339 160.34 404.258 148.921 417.358C130.626 438.346 74.4178 490.902 1.0001 529.149Z"
          fill="#D9D4C8"/>
    <path d="M201.403 347.084C213.725 329.47 225.997 311.371 236.187 295.731C257.877 262.44 283.976 209.799 294.315 187.641L300.264 204.617M201.403 347.084C180.94 376.339 160.34 404.258 148.921 417.358C130.626 438.346 74.4178 490.902 1.00009 529.149C1.99683 529.166 115.67 498.338 189.056 432.047C262.441 365.756 295.907 271.796 306.213 221.594L300.264 204.617M201.403 347.084C202.121 346.058 276.309 251.217 300.264 204.617"
          stroke="#6C513D"/>
    <path d="M406.228 181.317C407.359 180.347 410.882 178.408 415.923 178.408C422.224 178.408 434.827 184.225 439.19 187.618M356.302 181.317C355.009 180.509 351.261 178.99 348.546 179.378"
          stroke="url(#paint3_linear_303_2029)"/>
    <path d="M411.56 3.42383L409.622 74.6781L455.186 113.941L411.56 3.42383Z" fill="#493C50" stroke="#2B2B2B"
          stroke-width="1.5"/>
    <path d="M349.031 1L350.97 72.2543L305.406 111.517L349.031 1Z" fill="#493C50" stroke="#2B2B2B" stroke-width="1.5"/>
    <path d="M399.927 190.527C396.437 209.528 388.455 224.296 384.901 229.305C386.959 222.442 390.837 207.091 392.196 193.593C386.937 215.532 370.108 227.626 362.119 230.759C365.944 223.991 368.774 215.754 370.83 207.492C368.25 202.645 362.603 187.715 360.665 166.775C354.848 173.368 335.325 192.142 326.29 200.706C328.481 212.892 331.235 223.476 333.035 229.305C330.318 226.944 325.732 220.747 320.96 212.824C322.934 227.56 332.095 249.017 336.428 257.903C333.112 256.103 330.066 253.179 327.219 251.117C328.358 258.485 327.845 274.869 327.219 282.624C324.795 278.262 320.886 271.846 306.376 251.117C296.196 236.575 288.593 212.824 287.471 204.584C287.29 221.064 288.003 233.102 288.926 239.968C285.371 234.313 279.425 218.35 280.201 191.981C280.25 190.307 280.317 188.691 280.402 187.134C268.542 185.583 264.339 183.902 263.72 183.256C264.883 182.093 272.283 173.4 275.838 169.199C266.531 166.097 254.187 158.858 249.178 155.627C257.903 150.456 277.777 137.498 287.471 127.028C290.873 123.354 295.612 118.725 301.044 113.839C293.288 110.655 287.794 106.117 286.017 104.246C295.227 103.277 311.708 97.4599 317.039 95.0363C322.371 92.6127 331.581 77.5862 355.333 70.3154C374.334 64.4987 392.979 68.8612 399.927 71.7695C428.526 71.7695 454.701 106.67 463.911 120.242C471.278 131.1 489.278 151.587 497.356 160.474C487.274 160.474 480.881 159.181 478.945 158.535C480.325 164.848 480.954 171.657 480.892 178.409C488.205 209.431 476.173 236.252 469.243 245.785C475.059 232.988 474.898 217.417 474.09 211.231C473.364 212.674 472.583 214.018 471.749 215.248C471.438 215.707 471.118 216.151 470.792 216.578C464.097 225.98 454.475 241.501 449.854 253.056C445.976 262.75 437.574 274.868 433.858 279.716V260.812C436.179 256.772 442.025 245.494 446.84 232.698C437.496 237.613 428.958 240.91 424.163 242.392C428.41 239.072 435.196 233.456 442.098 227.142C443.295 224.873 445.689 219.425 445.689 215.783C444.475 216.197 443.413 216.503 442.583 216.702C443.463 214.57 444.535 211.762 445.689 208.461C442.748 195.051 431.914 162.704 412.096 140.6C410.608 162.473 404.458 178.443 400.798 184.71C400.557 186.722 400.268 188.669 399.927 190.527Z"
          fill="#D9D4C8"/>
    <path d="M399.927 131.39C401.239 142.032 403.025 166.142 400.798 184.71M400.798 184.71C400.557 186.722 400.268 188.669 399.927 190.527C396.437 209.528 388.455 224.296 384.901 229.305C386.959 222.442 390.837 207.091 392.196 193.593M400.798 184.71C404.458 178.443 410.608 162.473 412.096 140.6M412.045 120.242C412.567 127.46 412.526 134.277 412.096 140.6M474.09 144.478C476.22 148.642 477.829 153.426 478.945 158.535M471.749 215.248C471.407 215.752 471.056 216.237 470.697 216.702C463.376 223.13 454.815 228.503 446.84 232.698M471.749 215.248C465.047 224.457 454.701 240.938 449.854 253.056C445.976 262.75 437.574 274.868 433.858 279.716V260.812C436.179 256.772 442.025 245.494 446.84 232.698M471.749 215.248C472.583 214.018 473.364 212.674 474.09 211.231M474.09 211.231C474.898 217.417 475.059 232.988 469.243 245.785C476.173 236.252 488.205 209.431 480.892 178.409M474.09 211.231C478.395 202.673 480.778 190.635 480.892 178.409M480.892 178.409C480.954 171.657 480.325 164.848 478.945 158.535M478.945 158.535C480.881 159.181 487.274 160.474 497.356 160.474C489.278 151.587 471.278 131.1 463.911 120.242C454.701 106.67 428.526 71.7695 399.927 71.7695C392.979 68.8612 374.334 64.4987 355.333 70.3154C331.581 77.5862 322.371 92.6127 317.039 95.0363C311.708 97.4599 295.227 103.277 286.017 104.246C287.794 106.117 293.288 110.655 301.044 113.839M345.638 82.9182C333.435 87.1021 314.963 101.317 301.044 113.839M301.044 113.839C295.612 118.725 290.873 123.354 287.471 127.028C277.777 137.498 257.903 150.456 249.178 155.627C254.187 158.858 266.531 166.097 275.838 169.199C272.283 173.4 264.883 182.093 263.72 183.256C264.339 183.902 268.542 185.583 280.402 187.134M288.926 151.264C286.504 153.685 281.646 164.155 280.402 187.134M288.441 176.47C287.956 186.649 287.568 195.751 287.471 204.584M280.402 187.134C280.317 188.691 280.25 190.307 280.201 191.981C279.425 218.35 285.371 234.313 288.926 239.968C288.003 233.102 287.29 221.064 287.471 204.584M287.471 204.584C288.593 212.824 296.196 236.575 306.376 251.117C320.886 271.846 324.795 278.262 327.219 282.624C327.845 274.869 328.358 258.485 327.219 251.117M296.196 205.553C300.074 215.248 307.83 234.637 327.219 251.117M355.333 96.0057C331.581 125.574 322.856 137.207 322.856 166.775C322.856 177.881 324.352 189.921 326.29 200.706M326.29 200.706C328.481 212.892 331.235 223.476 333.035 229.305C330.318 226.944 325.732 220.747 320.96 212.824M326.29 200.706C335.325 192.142 354.848 173.368 360.665 166.775C362.603 187.715 368.25 202.645 370.83 207.492M375.691 173.077C375.49 180.397 374.195 193.977 370.83 207.492M370.83 207.492C368.774 215.754 365.944 223.991 362.119 230.759C370.108 227.626 386.937 215.532 392.196 193.593M327.219 251.117C330.066 253.179 333.112 256.103 336.428 257.903C332.095 249.017 322.934 227.56 320.96 212.824M392.656 186.649C392.598 188.867 392.436 191.201 392.196 193.593M445.976 108.124C449.369 112.971 457.124 133.814 456.155 159.989C455.919 166.371 454.956 173.185 453.613 179.863M453.613 179.863C451.39 167.26 444.619 138.661 435.312 125.089C426.005 111.517 415.277 101.015 411.076 97.4599M453.613 179.863C451.472 190.508 448.363 200.807 445.689 208.461M445.689 208.461C444.535 211.762 443.463 214.57 442.583 216.702C443.413 216.503 444.475 216.197 445.689 215.783M445.689 208.461C442.748 195.051 431.914 162.704 412.096 140.6M442.098 227.142C435.196 233.456 428.41 239.072 424.163 242.392C428.958 240.91 437.496 237.613 446.84 232.698M442.098 227.142C449.638 220.246 457.315 212.516 461.972 206.038C457.35 210.967 450.383 214.183 445.689 215.783M442.098 227.142C443.295 224.873 445.689 219.425 445.689 215.783M305.406 178.893C308.648 190.132 314.952 202.847 320.96 212.824"
          stroke="url(#paint4_linear_303_2029)"/>
    <path d="M382.018 45.1099C380.467 54.0288 392.682 72.7391 398.984 80.9794C367.961 55.2891 365.053 38.8085 364.568 33.4765C364.083 28.1446 370.385 25.7209 384.442 29.5987C395.687 32.7009 407.547 42.5247 412.071 47.0487L411.955 46.9947C398.416 40.7087 383.952 33.9931 382.018 45.1099Z"
          fill="#D9D4C8" stroke="#454545" stroke-width="1.5"/>
    <path d="M502.16 600.047L479.882 586.546C473.747 591.38 460.8 601.447 458.088 603.047C455.376 604.647 452.115 612.715 450.823 616.548L474.07 671.052C476.007 673.719 480.076 679.253 480.851 680.053C481.819 681.053 483.272 683.553 487.147 682.053C491.021 680.553 500.707 676.553 501.676 674.553C502.451 672.953 501.218 669.552 500.505 668.052C502.062 666.872 503.235 665.942 503.613 665.552C505.066 664.052 504.582 662.052 504.098 661.052C503.873 660.588 502.505 658.408 500.957 656.051C501.035 652.551 500.901 645.35 499.739 644.55C498.576 643.75 494.294 645.217 492.298 646.05C492.131 637.741 485.872 630.122 482.34 627.049C489.614 622.457 504.669 611.958 505.066 611.548C505.454 611.148 503.29 603.714 502.16 600.047Z"
          fill="#FEF3E2"/>
    <path d="M478.913 629.049C479.523 628.779 480.744 628.056 482.34 627.049M482.34 627.049C489.614 622.457 504.669 611.958 505.066 611.548C505.454 611.148 503.29 603.714 502.16 600.047L479.882 586.546C473.747 591.38 460.8 601.447 458.088 603.047C455.376 604.647 452.115 612.715 450.823 616.548L474.07 671.052C476.007 673.719 480.076 679.253 480.851 680.053C481.819 681.053 483.272 683.553 487.147 682.053C491.021 680.553 500.707 676.553 501.676 674.553C502.451 672.953 501.218 669.552 500.505 668.052M482.34 627.049C485.872 630.122 492.131 637.741 492.298 646.05M490.052 658.051C489.891 659.218 490.052 659.151 491.99 649.551C492.023 649.384 492.054 649.217 492.082 649.051M490.052 658.051C491.344 659.218 494.024 661.752 494.411 662.552M490.052 658.051L489.084 663.552M492.082 649.051C493.02 648.717 495.186 648.351 496.349 649.551C497.128 650.356 499.164 653.322 500.957 656.051M492.082 649.051C492.251 648.045 492.318 647.043 492.298 646.05M482.34 673.553C482.005 673.219 481.916 673.053 484.241 675.053C486.565 677.053 488.761 676.553 489.568 676.053C492.401 674.028 497.276 670.501 500.505 668.052M500.505 668.052C502.062 666.872 503.235 665.942 503.613 665.552C505.066 664.052 504.582 662.052 504.098 661.052C503.873 660.588 502.505 658.408 500.957 656.051M500.957 656.051C501.035 652.551 500.901 645.35 499.739 644.55C498.576 643.75 494.294 645.217 492.298 646.05"
          stroke="#404040"/>
    <path d="M452.678 549.491C465.227 516.701 459.203 493.35 458.701 489.873L469.242 420.815L451.674 375.108L373.37 339.337L306.61 378.089L314.14 421.809L324.179 472.981C316.315 486.892 299.784 510.441 300.587 515.21C301.39 519.98 304.603 533.262 305.607 536.574L308.618 546.51L381.401 598.179C405.16 582.778 452.678 551.478 452.678 549.491Z"
          fill="#FDF4E2" stroke="#404040"/>
    <path d="M433.943 388.778C429.078 401.954 417.031 432.061 407.77 447.082C403.24 454.493 403.24 453.505 402.234 456.47C402.056 456.993 401.753 457.485 401.372 457.952C400.724 457.952 366.41 457.039 365.195 457.496C364.979 457.151 364.743 456.809 364.484 456.47C358.612 440.659 342.841 405.677 326.734 392.237L344.351 467.834L355.927 469.811C359.115 469.481 365.692 468.427 366.497 466.846C366.908 466.038 367.152 464.818 367.089 463.387H395.69C395.187 465.364 396.194 467.34 399.214 467.834C402.234 468.328 442.5 480.681 450.553 485.622C458.607 490.563 460.117 488.586 461.123 485.622C462.13 482.657 461.123 481.669 461.123 481.175C461.123 480.681 477.733 460.917 470.183 427.318C470.183 426.527 465.485 404.589 463.137 393.719L433.943 388.778Z"
          fill="white"/>
    <path d="M395.69 463.387C395.187 465.364 396.194 467.34 399.214 467.834C402.234 468.328 442.5 480.681 450.553 485.622C458.607 490.563 460.117 488.586 461.123 485.622C462.13 482.657 461.123 481.669 461.123 481.175C461.123 480.681 477.733 460.917 470.183 427.318C470.183 426.527 465.485 404.589 463.137 393.719L433.943 388.778C429.078 401.954 417.031 432.061 407.77 447.082C403.24 454.493 403.24 453.505 402.234 456.47C402.056 456.993 401.753 457.485 401.372 457.952M395.69 463.387C396.105 461.76 399.592 460.132 401.372 457.952M395.69 463.387C386.63 463.387 368.226 463.387 367.089 463.387M401.372 457.952C400.724 457.952 366.41 457.039 365.195 457.496M365.195 457.496C364.979 457.151 364.743 456.809 364.484 456.47C358.612 440.659 342.841 405.677 326.734 392.237L344.351 467.834L355.927 469.811C359.115 469.481 365.692 468.427 366.497 466.846C366.908 466.038 367.152 464.818 367.089 463.387M365.195 457.496C366.468 459.526 367.012 461.617 367.089 463.387"
          stroke="#404040"/>
    <path d="M387.715 841.204C378.647 824.849 364.542 770.332 364.542 766.862L492.994 770.255C507.502 780.564 533.226 910.825 540.855 986.418C543.676 992.365 550.426 1018.63 553.448 1031.02C565.203 1053.82 591.532 1106.16 602.816 1133.12C616.921 1166.82 620.447 1201.02 622.462 1222.82C624.074 1240.27 630.858 1290.23 634.048 1313.03L592.741 1318.48C585.856 1295.84 569.568 1245.82 559.493 1226.79C549.418 1207.76 524.399 1137.25 513.148 1104.37C479.901 1065.72 463.277 1016.15 457.232 997.817C451.187 979.479 396.782 857.559 387.715 841.204Z"
          fill="#FDF4E2" stroke="#404040"/>
    <path d="M513.148 1104.37C479.901 1065.72 463.277 1016.15 457.232 997.817C453.625 986.876 432.803 939.06 414.666 898.793L414.701 898.684C429.379 894.141 471.306 881.524 522.26 867.2C530.34 907.412 537.425 952.438 540.855 986.418C543.676 992.365 550.426 1018.63 553.448 1031.02C565.203 1053.82 591.532 1106.16 602.816 1133.12C616.921 1166.82 620.447 1201.02 622.462 1222.82C624.074 1240.27 630.858 1290.23 634.048 1313.03L592.741 1318.48C585.856 1295.84 569.568 1245.82 559.493 1226.79C549.418 1207.76 524.399 1137.25 513.148 1104.37Z"
          fill="#5C5E72" stroke="#404040"/>
    <path d="M452.044 397.002C457.088 436.345 443.637 468.536 436.281 479.714C438.282 480.434 440.225 481.148 442.061 481.845C449.417 470.31 462.763 437.931 457.298 400.703C456.773 396.649 455.617 388.54 455.197 388.54C454.776 388.54 451.168 386.76 449.417 385.87L452.044 397.002Z"
          fill="#F3778A" stroke="#404040"/>
    <path d="M447.427 396.868C459.487 405.296 468.218 419.177 470.228 428.101L471.707 436.033C472.511 436.033 475.233 436.528 477.578 436.528C484.678 445.65 532.785 477.346 555.951 492.053C552.349 497.463 548.71 503.833 546.526 507.917C539.958 510.999 532.878 515.607 529.84 521.303C525.82 528.838 490.329 565.59 474.248 581.785C492.339 601.615 515.12 616.323 524.5 621.446C538.972 609.547 573.195 574.183 587.084 558.98C600.495 547.741 611.814 537.958 615.267 534.192C624.815 523.782 630.343 519.32 633.358 507.917C636.373 496.515 628.835 482.138 623.81 475.197C618.785 468.257 575.066 428.101 570.041 422.647C566.021 418.285 562.671 418.847 561.498 419.673C551.448 408.27 530.945 384.871 529.337 382.491C527.729 380.111 522.302 382.161 519.789 383.483C519.287 380.508 502.704 350.063 501.196 346.051C499.99 342.842 492.988 342.897 489.638 343.326L418.784 324.983C419.286 321.348 418.784 314.572 412.753 316.555V294.742H410.743H366.019H359.989H350.441V318.043C348.431 317.382 343.708 317.844 340.894 324.983C340.727 325.406 340.58 325.789 340.45 326.137C335.878 327.847 299.233 342.045 280.592 349.275C275.064 347.788 267.024 344.814 258.481 349.275C249.938 353.737 248.933 359.686 248.431 367.123C248.029 373.072 248.263 413.228 248.431 432.562C248.431 433.719 249.235 436.429 252.451 438.016C255.667 439.602 262.362 445.127 264.205 446.945L289.134 428.101C290.642 422.813 295.064 410.947 300.692 405.792C306.321 400.636 354.294 366.491 377.577 350.063C404.259 367.819 439.686 391.459 447.427 396.868Z"
          fill="#5B5E72"/>
    <path d="M359.989 294.742V338.369C363.395 340.631 367.306 343.23 371.547 346.051M359.989 294.742H366.019M359.989 294.742H350.441V318.043C348.431 317.382 343.708 317.844 340.894 324.983C337.376 333.907 342.401 325.479 340.894 325.975C339.688 326.371 300.19 341.674 280.592 349.275M470.228 428.101C468.218 419.177 459.487 405.296 447.427 396.868C439.686 391.459 404.259 367.819 377.577 350.063M470.228 428.101L471.707 436.033C472.511 436.033 475.233 436.528 477.578 436.528M470.228 428.101C470.66 426.437 470.441 424.61 470.945 422.647M489.638 343.326L418.784 324.983C419.286 321.348 418.784 314.572 412.753 316.555M489.638 343.326C486.808 359.382 477.542 396.839 471.707 419.673M489.638 343.326C492.988 342.897 499.99 342.842 501.196 346.051C502.704 350.063 519.287 380.508 519.789 383.483C522.302 382.161 527.729 380.111 529.337 382.491C530.945 384.871 551.448 408.27 561.498 419.673C562.671 418.847 566.021 418.285 570.041 422.647C575.066 428.101 618.785 468.257 623.81 475.197C628.835 482.138 636.373 496.515 633.358 507.917C630.343 519.32 624.815 523.782 615.267 534.192C611.814 537.958 600.495 547.741 587.084 558.98M412.753 316.555V294.742H410.743H366.019M412.753 316.555C402.368 322.339 380.391 334.502 375.567 336.881M366.019 294.742V335.89C391.648 352.085 444.512 385.565 450.945 389.927C458.985 395.381 470.861 407.279 471.707 419.673M471.707 419.673C471.446 420.695 471.192 421.687 470.945 422.647M280.592 349.275L287.899 416.698M280.592 349.275C275.064 347.788 267.024 344.814 258.481 349.275C249.938 353.737 248.933 359.686 248.431 367.123C248.029 373.072 248.263 413.228 248.431 432.562C248.431 433.719 249.235 436.429 252.451 438.016C255.667 439.602 262.362 445.127 264.205 446.945L289.134 428.101M289.134 428.101C290.642 422.813 295.064 410.947 300.692 405.792C306.321 400.636 354.294 366.491 377.577 350.063M289.134 428.101L287.899 416.698M377.577 350.063C375.509 348.687 373.493 347.346 371.547 346.051M371.547 346.051C346.924 363.155 297.275 398.058 295.667 400.834C293.657 404.304 290.181 406.783 287.899 416.698M539.388 598.145C551.503 588.366 570.83 572.603 587.084 558.98M587.084 558.98C573.195 574.183 538.972 609.547 524.5 621.446C515.12 616.323 492.339 601.615 474.248 581.785C490.329 565.59 525.82 528.838 529.84 521.303C532.878 515.607 539.958 510.999 546.526 507.917M595.669 489.574C585.116 493.871 562.704 502.762 557.478 503.951C554.895 504.539 550.82 505.902 546.526 507.917M546.526 507.917C548.71 503.833 552.349 497.463 555.951 492.053M595.669 479.164C587.127 479.329 568.935 480.155 564.513 482.138C562.417 483.078 559.199 487.176 555.951 492.053M555.951 492.053C532.785 477.346 484.678 445.65 477.578 436.528M477.578 436.528C493.156 435.206 530.945 430.579 557.478 422.647M470.945 422.647C486.389 413.558 517.88 394.191 520.292 389.432"
          stroke="#222222"/>
    <path d="M360.198 294.742V338.508C363.611 340.777 367.53 343.385 371.78 346.215C347.105 363.374 297.352 398.387 295.741 401.172C293.726 404.654 290.243 407.14 287.956 417.087L289.194 428.526C290.705 423.221 295.136 411.318 300.776 406.146C306.416 400.973 354.491 366.72 377.823 350.239C404.561 368.052 440.063 391.767 447.82 397.194C459.905 405.648 468.198 419.089 470.212 428.041C470.644 426.372 470.697 425.133 470.697 423.194C470.944 422.231 471.404 420.826 471.666 419.801C470.818 407.367 459.402 395.702 451.345 390.231C444.899 385.854 391.923 352.267 366.241 336.021V294.742H360.198Z"
          fill="#F3778A"/>
    <path d="M377.823 350.239C404.561 368.052 440.063 391.767 447.82 397.194C459.905 405.648 468.198 419.089 470.212 428.041C470.644 426.372 470.697 425.133 470.697 423.194C470.944 422.231 471.404 420.826 471.666 419.801C470.818 407.367 459.402 395.702 451.345 390.231C444.899 385.854 391.923 352.267 366.241 336.021V294.742H360.198V338.508C363.611 340.777 367.53 343.385 371.78 346.215M377.823 350.239C354.491 366.72 306.416 400.973 300.776 406.146C295.136 411.318 290.705 423.221 289.194 428.526L287.956 417.087C290.243 407.14 293.726 404.654 295.741 401.172C297.352 398.387 347.105 363.374 371.78 346.215M377.823 350.239C375.75 348.859 373.73 347.513 371.78 346.215"
          stroke="#222222"/>
    <path d="M291.971 992.442C301.638 965.048 329.158 840.541 341.276 772.679L256.726 734.871L216.447 742.812C206.377 753.73 203.859 860.927 205.873 906.585C207.484 943.112 205.202 1009.48 203.859 1038.1C194.293 1057.95 181.705 1117.01 178.181 1143.81C174.657 1170.61 184.726 1238.1 186.74 1251.01C188.352 1261.33 191.775 1299.64 193.286 1317.51L235.579 1312.55C237.09 1295.67 240.614 1259.34 242.628 1249.02C245.146 1236.12 252.698 1154.23 252.195 1143.81C251.792 1135.47 255.383 1107.91 257.23 1095.17C273.744 1066.98 287.271 1014.94 291.971 992.442Z"
          fill="#FDF4E2" stroke="#404040"/>
    <path d="M257.23 1095.17C273.744 1066.98 287.272 1014.94 291.971 992.442C296.859 978.59 306.31 939.913 316.028 896.283L315.905 896.081C252.798 891.285 215.929 889.693 205.377 889.497C205.485 895.797 205.652 901.563 205.873 906.585C207.484 943.111 205.202 1009.48 203.859 1038.1C194.293 1057.95 181.706 1117.01 178.181 1143.81C174.657 1170.61 184.727 1238.1 186.74 1251.01C188.352 1261.33 191.775 1299.64 193.286 1317.51L235.579 1312.54C237.09 1295.67 240.614 1259.34 242.628 1249.02C245.146 1236.12 252.698 1154.23 252.195 1143.81C251.792 1135.47 255.384 1107.91 257.23 1095.17Z"
          fill="#5C5E72" stroke="#404040"/>
    <path d="M482.812 718.325C483.312 717.828 486.814 695.458 484.813 690.983C482.812 686.509 478.311 689.989 477.81 688.498C477.31 687.007 470.308 630.335 453.302 610.45C453.302 609.953 453.802 605.976 456.803 598.52C456.803 597.028 459.304 590.069 453.302 589.571C454.469 577.641 456.803 553.182 456.803 550.796C456.803 547.814 453.302 546.819 451.801 547.814C451.051 548.311 418.665 566.082 386.279 583.854L380.776 586.874C357.601 572.528 310.351 542.643 306.749 537.871C305.249 537.043 302.348 536.181 302.748 539.363C303.248 543.339 302.748 560.738 302.748 562.23C301.081 561.07 297.446 559.844 296.246 564.218C294.745 569.687 290.744 574.658 290.744 579.629C290.744 584.6 259.732 622.878 241.726 656.682C223.72 690.486 216.217 737.712 216.217 742.684C224.22 743.678 241.826 746.064 248.228 747.655C256.231 749.643 275.535 757.1 302.896 759.089C302.574 764.591 302.487 769.232 302.748 772.511C360.935 772.842 481.559 772.641 493.963 770.255C494.463 755.342 494.016 725.483 492.816 724.29C491.615 723.097 485.647 719.816 482.812 718.325Z"
          fill="#5C5E72"/>
    <path d="M453.302 589.571C459.304 590.069 456.803 597.028 456.803 598.52C453.802 605.976 453.302 609.953 453.302 610.45C470.308 630.335 477.31 687.007 477.81 688.498C478.311 689.989 482.812 686.509 484.813 690.983C486.814 695.458 483.312 717.828 482.812 718.325C485.647 719.816 491.615 723.097 492.816 724.29C494.016 725.483 494.463 755.342 493.963 770.255C481.559 772.641 360.935 772.842 302.748 772.511C302.487 769.232 302.574 764.591 302.896 759.089M453.302 589.571C454.469 577.641 456.803 553.182 456.803 550.796C456.803 547.814 453.302 546.819 451.801 547.814C451.008 548.339 414.891 568.153 380.776 586.874M453.302 589.571C431.632 597.126 382.186 614.95 357.756 625.808M380.776 586.874C350.321 603.586 321.462 619.427 320.754 619.896C319.254 620.89 319.254 621.387 318.754 623.375C318.253 625.364 312.251 662.648 311.751 676.07C311.338 687.163 304.433 732.888 302.896 759.089M380.776 586.874C357.601 572.528 310.351 542.643 306.749 537.871C305.249 537.043 302.348 536.181 302.748 539.363C303.248 543.339 302.748 560.738 302.748 562.23M302.748 562.23C301.081 561.07 297.446 559.844 296.246 564.218C294.745 569.687 290.744 574.658 290.744 579.629C290.744 584.6 259.732 622.878 241.726 656.682C223.72 690.486 216.217 737.712 216.217 742.684C224.22 743.678 241.826 746.064 248.228 747.655C256.231 749.643 275.535 757.1 302.896 759.089M302.748 562.23C307.416 572.669 318.353 595.736 324.756 604.485M375.774 752.129C402.95 737.713 461.405 705.301 477.81 690.983"
          stroke="#404040"/>
    <path d="M237.14 1310.31C240.343 1310.31 241.143 1312.96 241.143 1314.28C241.539 1315.86 241.308 1383.32 241.143 1416.86C242.645 1417.68 246.047 1420.43 247.648 1424.79C249.25 1429.15 242.645 1441.8 239.142 1447.58C242.645 1465.92 242.645 1509.53 241.644 1513.99C240.643 1518.45 237.14 1524.89 208.119 1523.9C184.901 1523.11 179.097 1517.95 179.097 1515.47C179.097 1509.53 180.598 1488.71 184.601 1472.36C187.803 1459.28 189.938 1431.56 190.605 1419.34L190.368 1418.11C187.256 1402.09 172.592 1326.58 172.592 1323.69C172.592 1320.72 191.606 1315.27 200.613 1312.29C209.62 1309.32 233.137 1310.31 237.14 1310.31Z"
          fill="#5D5F73"/>
    <path d="M654.954 1308.83C656.555 1309.22 656.956 1312.63 656.956 1314.28C657.756 1333.7 655.288 1379.53 653.953 1400.01C656.455 1401.5 668.464 1411.9 667.964 1415.87C667.659 1418.28 664.053 1426.96 661.023 1433.89C661.887 1439.86 661.386 1455.04 660.959 1462.94C662.96 1468.4 666.963 1493.67 666.963 1506.06C666.963 1518.45 657.956 1522.91 634.939 1523.4C611.922 1523.9 603.415 1516.46 602.915 1513.49C602.415 1510.52 602.915 1481.28 604.916 1470.38C606.518 1461.66 607.252 1449.56 607.418 1444.61C606.084 1439.16 603.115 1427.17 601.914 1422.8C600.782 1418.69 605.044 1414.7 607.493 1413.15L607.418 1412.89C599.913 1387.12 591.907 1330.63 591.406 1326.17C590.906 1321.71 591.907 1319.73 594.909 1318.74C597.911 1317.75 613.423 1313.29 615.925 1312.79C618.427 1312.29 652.953 1308.33 654.954 1308.83Z"
          fill="#5D5F73"/>
    <path d="M658.457 1439.65C659.175 1438.07 660.071 1436.07 661.023 1433.89M661.023 1433.89C664.053 1426.96 667.659 1418.28 667.964 1415.87C668.464 1411.9 656.455 1401.5 653.953 1400.01C655.288 1379.53 657.756 1333.7 656.956 1314.28C656.956 1312.63 656.555 1309.22 654.954 1308.83C652.953 1308.33 618.427 1312.29 615.925 1312.79C613.423 1313.29 597.911 1317.75 594.909 1318.74C591.907 1319.73 590.906 1321.71 591.406 1326.17C591.907 1330.63 599.913 1387.12 607.418 1412.89C607.443 1412.98 607.468 1413.06 607.493 1413.15C605.044 1414.7 600.782 1418.69 601.914 1422.8C603.115 1427.17 606.084 1439.16 607.418 1444.61C607.252 1449.56 606.518 1461.66 604.916 1470.38C602.915 1481.28 602.415 1510.52 602.915 1513.49C603.415 1516.46 611.922 1523.9 634.939 1523.4C657.956 1522.91 666.963 1518.45 666.963 1506.06C666.963 1493.67 662.96 1468.4 660.959 1462.94C661.386 1455.04 661.887 1439.86 661.023 1433.89ZM241.143 1314.28C241.143 1312.96 240.343 1310.31 237.14 1310.31C233.137 1310.31 209.62 1309.32 200.613 1312.29C191.606 1315.27 172.592 1320.72 172.592 1323.69C172.592 1326.67 188.104 1406.45 190.606 1419.34C189.938 1431.56 187.803 1459.28 184.601 1472.36C180.598 1488.71 179.097 1509.53 179.097 1515.47C179.097 1517.95 184.901 1523.11 208.119 1523.9C237.14 1524.89 240.643 1518.45 241.644 1513.99C242.645 1509.53 242.645 1465.92 239.142 1447.58C242.645 1441.8 249.25 1429.15 247.648 1424.79C246.047 1420.43 242.645 1417.68 241.143 1416.86C241.308 1383.32 241.539 1315.86 241.143 1314.28Z"
          stroke="#404040"/>
    <path d="M319.291 311.223C318.516 315.489 311.212 325.603 307.658 330.127C311.051 332.066 309.112 334.975 309.112 336.429C309.112 337.592 310.404 342.73 311.051 345.154C311.697 348.385 315.704 361.44 326.562 387.809C340.134 420.771 360.008 466.335 360.008 480.391C360.008 491.637 353.545 503.173 350.313 507.536C346.436 512.868 338.195 523.047 329.47 523.047C322.49 523.047 316.867 520.785 314.929 519.654H306.204C302.714 519.654 294.085 508.021 290.208 502.204C281.806 498.003 264.42 488.05 262.094 481.846C259.185 474.09 257.731 464.396 266.456 442.583C273.436 425.133 284.009 422.225 288.753 422.709C288.115 417.698 287.941 411.351 286.815 404.29C278.671 350.777 276.959 326.088 277.12 320.433C276.635 310.738 281.483 303.468 284.391 295.227C287.299 286.987 291.177 274.384 291.662 270.507C292.023 267.617 293.191 266.073 294.766 262.266C295.186 251.117 295.83 227.269 295.055 221.065C294.085 213.309 297.963 213.794 299.902 216.217C301.453 218.156 302.363 221.549 302.624 223.004C303.339 217.45 303.78 213.163 303.78 211.855C303.78 208.753 305.983 209.593 307.084 210.401C307.582 210.122 308.243 210.075 309.112 210.401C312.99 211.855 315.898 216.218 316.383 222.519C316.868 228.82 315.898 252.572 315.413 258.873C314.929 265.175 314.929 270.022 314.929 270.507C314.929 270.991 314.929 273.243 319.291 273.571C320.482 273.236 321.786 272.86 323.169 272.445C328.016 270.991 349.344 260.327 350.798 259.842C352.252 259.358 354.676 259.842 354.191 262.266C353.706 264.69 352.737 266.144 349.344 268.568C346.629 270.506 330.763 280.362 323.169 285.048C323.557 287.375 321.715 288.926 320.745 289.411C320.745 307.83 320.261 305.891 319.291 311.223Z"
          fill="#5D5F71"/>
    <path d="M307.658 330.127C311.212 325.603 318.516 315.489 319.291 311.223C320.261 305.891 320.745 307.83 320.745 289.411C321.715 288.926 323.557 287.375 323.169 285.048C330.763 280.362 346.629 270.506 349.344 268.568C352.737 266.144 353.706 264.69 354.191 262.266C354.676 259.842 352.252 259.358 350.798 259.842C349.344 260.327 328.016 270.991 323.169 272.445C321.786 272.86 320.482 273.236 319.291 273.571M307.658 330.127C311.051 332.066 309.112 334.975 309.112 336.429C309.112 337.592 310.404 342.73 311.051 345.154C311.697 348.385 315.704 361.44 326.562 387.809C340.134 420.771 360.008 466.335 360.008 480.391C360.008 491.637 353.545 503.173 350.313 507.536C346.436 512.868 338.195 523.047 329.47 523.047C322.49 523.047 316.867 520.785 314.929 519.654C313.474 519.654 309.694 519.654 306.204 519.654C302.714 519.654 294.085 508.021 290.208 502.204C281.806 498.003 264.42 488.05 262.094 481.846C259.185 474.09 257.731 464.396 266.456 442.583C273.436 425.133 284.009 422.225 288.753 422.709M307.658 330.127C306.042 330.127 302.52 330.03 301.356 329.643M307.173 278.747C308.142 276.808 311.536 275.838 312.99 275.354C314.029 275.007 316.307 274.413 319.291 273.571M297.479 268.568C299.741 261.781 304.459 245.786 305.234 236.091C306.01 226.397 305.88 217.833 305.719 214.763C305.603 213.368 305.804 211.118 307.084 210.401M319.291 273.571C314.929 273.243 314.929 270.991 314.929 270.507C314.929 270.022 314.929 265.175 315.413 258.873C315.898 252.572 316.868 228.82 316.383 222.519C315.898 216.218 312.99 211.855 309.112 210.401C308.243 210.075 307.582 210.122 307.084 210.401M307.084 210.401C305.983 209.593 303.78 208.753 303.78 211.855C303.78 213.163 303.339 217.45 302.624 223.004M297.479 484.754C290.208 456.155 290.208 450.823 288.753 422.709M288.753 422.709C288.115 417.698 287.941 411.351 286.815 404.29C278.671 350.777 276.959 326.088 277.12 320.433C276.635 310.738 281.483 303.468 284.391 295.227C287.299 286.987 291.177 274.384 291.662 270.507C292.023 267.617 293.191 266.073 294.766 262.266M294.766 262.266C295.305 260.963 295.891 259.396 296.509 257.419C298.758 249.71 301.219 233.913 302.624 223.004M294.766 262.266C295.186 251.117 295.83 227.269 295.055 221.065C294.085 213.309 297.963 213.794 299.902 216.217C301.453 218.156 302.363 221.549 302.624 223.004"
          stroke="#454242" stroke-width="1.5"/>
    <path d="M368.446 300.603C367.075 301.426 369.931 305.287 371.531 307.115C370.617 308.943 368.926 312.736 369.474 313.285C370.023 313.833 373.587 311.457 375.301 310.2C377.243 311.457 381.196 313.765 381.471 312.942C381.745 312.119 379.3 308.486 378.043 306.773C379.3 305.059 381.608 301.563 380.785 301.289C379.962 301.014 376.558 302.774 374.958 303.688C373.359 302.317 369.817 299.781 368.446 300.603Z"
          fill="#B94A52" stroke="black"/>
    <path d="M318.278 623.689C318.767 621.71 318.767 621.215 320.232 620.225C320.41 620.105 322.4 618.977 325.764 617.083C323.811 632.811 319.805 667.237 319.414 679.114C318.926 693.96 316.483 719.198 314.53 734.538C312.966 746.811 311.818 764.756 311.44 772.194C308.377 772.18 305.44 772.164 302.647 772.148C301.182 753.343 310.951 689.506 311.44 676.145C311.928 662.783 317.79 625.669 318.278 623.689Z"
          fill="#E1707A" stroke="#404040"/>
    <path d="M359.82 618.053C357.881 618.053 348.671 623.385 347.701 623.869C343.662 621.931 335.39 618.441 334.614 619.992C333.838 621.543 336.876 627.747 338.492 630.656C337.361 635.018 335.583 643.937 337.522 644.713C339.461 645.488 345.116 640.835 347.701 638.411C351.741 640.996 360.013 645.682 360.789 643.743C361.565 641.804 357.234 634.21 354.972 630.656C357.234 626.455 361.371 618.053 359.82 618.053Z"
          fill="#F57880" stroke="black"/>
    <path d="M512.466 542.61C510.716 544.534 508.902 546.511 507.051 548.513C518.219 564.198 539.404 579.901 552.017 588.033C553.731 589.137 555.286 590.102 556.637 590.908L556.776 590.881C558.721 588.884 560.664 586.877 562.583 584.884C561.476 584.33 560.114 583.581 558.531 582.637C560.988 580.598 563.508 578.501 566.058 576.375C567.175 577.007 568.187 577.558 569.077 578.023L569.161 578.005C570.799 576.281 572.398 574.59 573.943 572.948C573.281 572.587 572.53 572.159 571.695 571.663C562.356 566.108 542.633 552.081 522.941 530.803C521.173 532.87 519.18 535.141 517.028 537.551V537.72C533.915 556.07 555.085 570.165 566.058 576.375C563.508 578.501 560.988 580.598 558.531 582.637C548.748 576.801 530.557 563.501 512.466 542.61Z"
          fill="#E57076"/>
    <path d="M558.531 582.637C560.114 583.581 561.476 584.33 562.583 584.884C560.664 586.877 558.721 588.884 556.776 590.881L556.637 590.908C555.286 590.102 553.731 589.137 552.017 588.033M558.531 582.637C548.748 576.801 530.557 563.501 512.466 542.61C510.716 544.534 508.902 546.511 507.051 548.513C518.219 564.198 539.404 579.901 552.017 588.033M558.531 582.637C556.298 584.491 554.118 586.297 552.017 588.033M558.531 582.637C562.788 579.104 567.237 575.397 571.695 571.663M571.695 571.663C572.53 572.159 573.281 572.587 573.943 572.948C572.398 574.59 570.799 576.281 569.161 578.005L569.077 578.023C559.441 572.991 535.635 557.938 517.028 537.72V537.551C519.18 535.141 521.173 532.87 522.941 530.803C542.633 552.081 562.356 566.108 571.695 571.663Z"
          stroke="#222222"/>
    <path d="M270.052 482.905C271.067 484.237 272.715 484.513 273.712 483.754C274.708 482.995 274.88 481.332 273.865 480C272.849 478.668 271.201 478.392 270.205 479.151C269.209 479.911 269.037 481.573 270.052 482.905Z"
          fill="#F3778A" stroke="#463C4D"/>
    <path d="M279.746 490.661C280.761 491.993 282.41 492.269 283.406 491.51C284.402 490.751 284.574 489.088 283.559 487.756C282.544 486.424 280.896 486.148 279.899 486.907C278.903 487.666 278.731 489.329 279.746 490.661Z"
          fill="#F3778A" stroke="#463C4D"/>
    <defs>
        <linearGradient id="paint0_linear_303_2029" x1="405.744" y1="205.75" x2="427.071" y2="205.75"
                        gradientUnits="userSpaceOnUse">
            <stop stop-color="#666666"/>
            <stop offset="0.56"/>
        </linearGradient>
        <linearGradient id="paint1_linear_303_2029" x1="436.039" y1="212.824" x2="436.039" y2="233.667"
                        gradientUnits="userSpaceOnUse">
            <stop/>
            <stop offset="1" stop-color="#C4BDAF"/>
        </linearGradient>
        <linearGradient id="paint2_linear_303_2029" x1="408.652" y1="195.365" x2="432.888" y2="195.365"
                        gradientUnits="userSpaceOnUse">
            <stop offset="0.475" stop-color="#454545"/>
            <stop offset="1" stop-color="#666666"/>
        </linearGradient>
        <linearGradient id="paint3_linear_303_2029" x1="398.511" y1="184.622" x2="433.634" y2="184.622"
                        gradientUnits="userSpaceOnUse">
            <stop stop-color="#454545"/>
            <stop offset="0.0001" stop-color="#605D59"/>
            <stop offset="1" stop-color="#938B7F"/>
        </linearGradient>
        <linearGradient id="paint4_linear_303_2029" x1="384.901" y1="199.979" x2="483.17" y2="199.979"
                        gradientUnits="userSpaceOnUse">
            <stop offset="0.475" stop-color="#454545"/>
            <stop offset="1" stop-color="#666666"/>
        </linearGradient>
    </defs>
</svg>
